CEND
BEGIN BULK
GRID,1,0,16.651155,7.642625,0.500000,0
GRID,2,0,15.664482,7.185022,0.500000,0
GRID,3,0,14.677809,6.727419,0.500000,0
GRID,4,0,13.691136,6.269816,0.500000,0
GRID,5,0,12.704463,5.812213,0.500000,0
GRID,6,0,11.717790,5.354609,0.500000,0
GRID,7,0,10.731117,4.897006,0.500000,0
GRID,8,0,9.744444,4.439403,0.500000,0
GRID,9,0,8.757771,3.981800,0.500000,0
GRID,10,0,7.771098,3.524197,0.500000,0
GRID,11,0,6.784425,3.066594,0.500000,0
GRID,12,0,5.797752,2.608990,0.500000,0
GRID,13,0,4.811078,2.151387,0.500000,0
GRID,14,0,3.824405,1.693784,0.500000,0
GRID,15,0,2.837732,1.236181,0.500000,0
GRID,16,0,1.880000,4.123196,0.500000,0
GRID,17,0,1.880000,3.956391,0.500000,0
GRID,18,0,1.880000,3.789587,0.500000,0
GRID,19,0,1.880000,3.622782,0.500000,0
GRID,20,0,1.880000,3.455978,0.500000,0
GRID,21,0,1.880000,3.289174,0.500000,0
GRID,22,0,1.880000,3.122369,0.500000,0
GRID,23,0,1.880000,2.955565,0.500000,0
GRID,24,0,1.880000,2.788760,0.500000,0
GRID,25,0,1.880000,2.621956,0.500000,0
GRID,26,0,1.880000,2.455151,0.500000,0
GRID,27,0,1.880000,2.288347,0.500000,0
GRID,28,0,1.880000,2.121543,0.500000,0
GRID,29,0,1.880000,1.954738,0.500000,0
GRID,30,0,1.880000,1.787934,0.500000,0
GRID,31,0,1.880000,1.621129,0.500000,0
GRID,32,0,1.880000,1.454325,0.500000,0
GRID,33,0,1.880000,1.287521,0.500000,0
GRID,34,0,1.880000,1.120716,0.500000,0
GRID,35,0,1.880000,0.953912,0.500000,0
GRID,36,0,1.813911,1.880000,0.500000,0
GRID,37,0,0.914887,2.144966,0.500000,0
GRID,38,0,1.889391,1.623897,0.500000,0
GRID,39,0,1.934623,1.470424,0.500000,0
GRID,40,0,1.979856,1.316951,0.500000,0
GRID,41,0,2.025089,1.163478,0.500000,0
GRID,42,0,2.070321,1.010005,0.500000,0
GRID,43,0,1.846955,3.085000,0.500000,0
GRID,44,0,1.850933,1.678804,0.500000,0
GRID,45,0,1.884695,2.956949,0.500000,0
GRID,46,0,1.929928,2.803475,0.500000,0
GRID,47,0,1.975161,2.650002,0.500000,0
GRID,48,0,2.020393,2.496529,0.500000,0
GRID,49,0,2.065626,2.343056,0.500000,0
GRID,50,0,2.110858,2.189583,0.500000,0
GRID,51,0,2.156091,2.036110,0.500000,0
GRID,52,0,2.201324,1.882636,0.500000,0
GRID,53,0,2.246556,1.729163,0.500000,0
GRID,54,0,2.291789,1.575690,0.500000,0
GRID,55,0,2.337022,1.422217,0.500000,0
GRID,56,0,2.382254,1.268744,0.500000,0
GRID,57,0,2.427487,1.115271,0.500000,0
GRID,58,0,1.880000,4.290000,0.500000,0
GRID,59,0,2.786979,1.212642,0.500000,0
GRID,60,0,1.925233,4.136527,0.500000,0
GRID,61,0,1.970465,3.983054,0.500000,0
GRID,62,0,2.015698,3.829581,0.500000,0
GRID,63,0,2.060930,3.676107,0.500000,0
GRID,64,0,2.106163,3.522634,0.500000,0
GRID,65,0,2.151396,3.369161,0.500000,0
GRID,66,0,2.196628,3.215688,0.500000,0
GRID,67,0,2.241861,3.062215,0.500000,0
GRID,68,0,2.287094,2.908742,0.500000,0
GRID,69,0,2.332326,2.755268,0.500000,0
GRID,70,0,2.377559,2.601795,0.500000,0
GRID,71,0,2.422791,2.448322,0.500000,0
GRID,72,0,2.468024,2.294849,0.500000,0
GRID,73,0,2.513257,2.141376,0.500000,0
GRID,74,0,2.558489,1.987903,0.500000,0
GRID,75,0,2.603722,1.834429,0.500000,0
GRID,76,0,2.648954,1.680956,0.500000,0
GRID,77,0,2.694187,1.527483,0.500000,0
GRID,78,0,2.739420,1.374010,0.500000,0
GRID,79,0,2.784652,1.220537,0.500000,0
GRID,80,0,2.215723,4.388946,0.500000,0
GRID,81,0,3.107985,1.361520,0.500000,0
GRID,82,0,2.260955,4.235473,0.500000,0
GRID,83,0,2.306188,4.082000,0.500000,0
GRID,84,0,2.351420,3.928527,0.500000,0
GRID,85,0,2.396653,3.775054,0.500000,0
GRID,86,0,2.441886,3.621581,0.500000,0
GRID,87,0,2.487118,3.468107,0.500000,0
GRID,88,0,2.532351,3.314634,0.500000,0
GRID,89,0,2.577583,3.161161,0.500000,0
GRID,90,0,2.622816,3.007688,0.500000,0
GRID,91,0,2.668049,2.854215,0.500000,0
GRID,92,0,2.713281,2.700742,0.500000,0
GRID,93,0,2.758514,2.547268,0.500000,0
GRID,94,0,2.803747,2.393795,0.500000,0
GRID,95,0,2.848979,2.240322,0.500000,0
GRID,96,0,2.894212,2.086849,0.500000,0
GRID,97,0,2.939444,1.933376,0.500000,0
GRID,98,0,2.984677,1.779903,0.500000,0
GRID,99,0,3.029910,1.626429,0.500000,0
GRID,100,0,3.075142,1.472956,0.500000,0
GRID,101,0,2.551445,4.487893,0.500000,0
GRID,102,0,3.428992,1.510398,0.500000,0
GRID,103,0,2.596678,4.334420,0.500000,0
GRID,104,0,2.641910,4.180946,0.500000,0
GRID,105,0,2.687143,4.027473,0.500000,0
GRID,106,0,2.732376,3.874000,0.500000,0
GRID,107,0,2.777608,3.720527,0.500000,0
GRID,108,0,2.822841,3.567054,0.500000,0
GRID,109,0,2.868073,3.413581,0.500000,0
GRID,110,0,2.913306,3.260107,0.500000,0
GRID,111,0,2.958539,3.106634,0.500000,0
GRID,112,0,3.003771,2.953161,0.500000,0
GRID,113,0,3.049004,2.799688,0.500000,0
GRID,114,0,3.094236,2.646215,0.500000,0
GRID,115,0,3.139469,2.492742,0.500000,0
GRID,116,0,3.184702,2.339268,0.500000,0
GRID,117,0,3.229934,2.185795,0.500000,0
GRID,118,0,3.275167,2.032322,0.500000,0
GRID,119,0,3.320400,1.878849,0.500000,0
GRID,120,0,3.365632,1.725376,0.500000,0
GRID,121,0,3.410865,1.571903,0.500000,0
GRID,122,0,2.887168,4.586839,0.500000,0
GRID,123,0,3.749998,1.659275,0.500000,0
GRID,124,0,2.932400,4.433366,0.500000,0
GRID,125,0,2.977633,4.279893,0.500000,0
GRID,126,0,3.022865,4.126420,0.500000,0
GRID,127,0,3.068098,3.972946,0.500000,0
GRID,128,0,3.113331,3.819473,0.500000,0
GRID,129,0,3.158563,3.666000,0.500000,0
GRID,130,0,3.203796,3.512527,0.500000,0
GRID,131,0,3.249029,3.359054,0.500000,0
GRID,132,0,3.294261,3.205581,0.500000,0
GRID,133,0,3.339494,3.052107,0.500000,0
GRID,134,0,3.384726,2.898634,0.500000,0
GRID,135,0,3.429959,2.745161,0.500000,0
GRID,136,0,3.475192,2.591688,0.500000,0
GRID,137,0,3.520424,2.438215,0.500000,0
GRID,138,0,3.565657,2.284742,0.500000,0
GRID,139,0,3.610889,2.131268,0.500000,0
GRID,140,0,3.656122,1.977795,0.500000,0
GRID,141,0,3.701355,1.824322,0.500000,0
GRID,142,0,3.746587,1.670849,0.500000,0
GRID,143,0,3.222890,4.685785,0.500000,0
GRID,144,0,4.071005,1.808153,0.500000,0
GRID,145,0,3.268123,4.532312,0.500000,0
GRID,146,0,3.313355,4.378839,0.500000,0
GRID,147,0,3.358588,4.225366,0.500000,0
GRID,148,0,3.403821,4.071893,0.500000,0
GRID,149,0,3.449053,3.918420,0.500000,0
GRID,150,0,3.494286,3.764946,0.500000,0
GRID,151,0,3.539518,3.611473,0.500000,0
GRID,152,0,3.584751,3.458000,0.500000,0
GRID,153,0,3.629984,3.304527,0.500000,0
GRID,154,0,3.675216,3.151054,0.500000,0
GRID,155,0,3.720449,2.997581,0.500000,0
GRID,156,0,3.765682,2.844107,0.500000,0
GRID,157,0,3.810914,2.690634,0.500000,0
GRID,158,0,3.856147,2.537161,0.500000,0
GRID,159,0,3.901379,2.383688,0.500000,0
GRID,160,0,3.946612,2.230215,0.500000,0
GRID,161,0,3.991845,2.076742,0.500000,0
GRID,162,0,4.037077,1.923269,0.500000,0
GRID,163,0,3.558613,4.784732,0.500000,0
GRID,164,0,4.392011,1.957031,0.500000,0
GRID,165,0,3.603845,4.631259,0.500000,0
GRID,166,0,3.649078,4.477785,0.500000,0
GRID,167,0,3.694311,4.324312,0.500000,0
GRID,168,0,3.739543,4.170839,0.500000,0
GRID,169,0,3.784776,4.017366,0.500000,0
GRID,170,0,3.830008,3.863893,0.500000,0
GRID,171,0,3.875241,3.710420,0.500000,0
GRID,172,0,3.920474,3.556946,0.500000,0
GRID,173,0,3.965706,3.403473,0.500000,0
GRID,174,0,4.010939,3.250000,0.500000,0
GRID,175,0,4.056171,3.096527,0.500000,0
GRID,176,0,4.101404,2.943054,0.500000,0
GRID,177,0,4.146637,2.789581,0.500000,0
GRID,178,0,4.191869,2.636107,0.500000,0
GRID,179,0,4.237102,2.482634,0.500000,0
GRID,180,0,4.282335,2.329161,0.500000,0
GRID,181,0,4.327567,2.175688,0.500000,0
GRID,182,0,4.372800,2.022215,0.500000,0
GRID,183,0,3.894335,4.883678,0.500000,0
GRID,184,0,4.713018,2.105908,0.500000,0
GRID,185,0,3.939568,4.730205,0.500000,0
GRID,186,0,3.984800,4.576732,0.500000,0
GRID,187,0,4.030033,4.423259,0.500000,0
GRID,188,0,4.075266,4.269785,0.500000,0
GRID,189,0,4.120498,4.116312,0.500000,0
GRID,190,0,4.165731,3.962839,0.500000,0
GRID,191,0,4.210964,3.809366,0.500000,0
GRID,192,0,4.256196,3.655893,0.500000,0
GRID,193,0,4.301429,3.502420,0.500000,0
GRID,194,0,4.346661,3.348946,0.500000,0
GRID,195,0,4.391894,3.195473,0.500000,0
GRID,196,0,4.437127,3.042000,0.500000,0
GRID,197,0,4.482359,2.888527,0.500000,0
GRID,198,0,4.527592,2.735054,0.500000,0
GRID,199,0,4.572824,2.581581,0.500000,0
GRID,200,0,4.618057,2.428108,0.500000,0
GRID,201,0,4.663290,2.274634,0.500000,0
GRID,202,0,4.708522,2.121161,0.500000,0
GRID,203,0,4.230058,4.982624,0.500000,0
GRID,204,0,5.034024,2.254786,0.500000,0
GRID,205,0,4.275290,4.829151,0.500000,0
GRID,206,0,4.320523,4.675678,0.500000,0
GRID,207,0,4.365756,4.522205,0.500000,0
GRID,208,0,4.410988,4.368732,0.500000,0
GRID,209,0,4.456221,4.215259,0.500000,0
GRID,210,0,4.501453,4.061785,0.500000,0
GRID,211,0,4.546686,3.908312,0.500000,0
GRID,212,0,4.591919,3.754839,0.500000,0
GRID,213,0,4.637151,3.601366,0.500000,0
GRID,214,0,4.682384,3.447893,0.500000,0
GRID,215,0,4.727617,3.294420,0.500000,0
GRID,216,0,4.772849,3.140946,0.500000,0
GRID,217,0,4.818082,2.987473,0.500000,0
GRID,218,0,4.863314,2.834000,0.500000,0
GRID,219,0,4.908547,2.680527,0.500000,0
GRID,220,0,4.953780,2.527054,0.500000,0
GRID,221,0,4.999012,2.373581,0.500000,0
GRID,222,0,4.565780,5.081571,0.500000,0
GRID,223,0,5.355031,2.403664,0.500000,0
GRID,224,0,4.611013,4.928098,0.500000,0
GRID,225,0,4.656246,4.774624,0.500000,0
GRID,226,0,4.701478,4.621151,0.500000,0
GRID,227,0,4.746711,4.467678,0.500000,0
GRID,228,0,4.791943,4.314205,0.500000,0
GRID,229,0,4.837176,4.160732,0.500000,0
GRID,230,0,4.882409,4.007259,0.500000,0
GRID,231,0,4.927641,3.853785,0.500000,0
GRID,232,0,4.972874,3.700312,0.500000,0
GRID,233,0,5.018106,3.546839,0.500000,0
GRID,234,0,5.063339,3.393366,0.500000,0
GRID,235,0,5.108572,3.239893,0.500000,0
GRID,236,0,5.153804,3.086420,0.500000,0
GRID,237,0,5.199037,2.932947,0.500000,0
GRID,238,0,5.244270,2.779473,0.500000,0
GRID,239,0,5.289502,2.626000,0.500000,0
GRID,240,0,5.334735,2.472527,0.500000,0
GRID,241,0,4.901503,5.180517,0.500000,0
GRID,242,0,5.676037,2.552541,0.500000,0
GRID,243,0,4.946735,5.027044,0.500000,0
GRID,244,0,4.991968,4.873571,0.500000,0
GRID,245,0,5.037201,4.720098,0.500000,0
GRID,246,0,5.082433,4.566624,0.500000,0
GRID,247,0,5.127666,4.413151,0.500000,0
GRID,248,0,5.172899,4.259678,0.500000,0
GRID,249,0,5.218131,4.106205,0.500000,0
GRID,250,0,5.263364,3.952732,0.500000,0
GRID,251,0,5.308596,3.799259,0.500000,0
GRID,252,0,5.353829,3.645786,0.500000,0
GRID,253,0,5.399062,3.492312,0.500000,0
GRID,254,0,5.444294,3.338839,0.500000,0
GRID,255,0,5.489527,3.185366,0.500000,0
GRID,256,0,5.534759,3.031893,0.500000,0
GRID,257,0,5.579992,2.878420,0.500000,0
GRID,258,0,5.625225,2.724947,0.500000,0
GRID,259,0,5.670457,2.571473,0.500000,0
GRID,260,0,5.237225,5.279463,0.500000,0
GRID,261,0,5.997044,2.701419,0.500000,0
GRID,262,0,5.282458,5.125990,0.500000,0
GRID,263,0,5.327691,4.972517,0.500000,0
GRID,264,0,5.372923,4.819044,0.500000,0
GRID,265,0,5.418156,4.665571,0.500000,0
GRID,266,0,5.463388,4.512098,0.500000,0
GRID,267,0,5.508621,4.358624,0.500000,0
GRID,268,0,5.553854,4.205151,0.500000,0
GRID,269,0,5.599086,4.051678,0.500000,0
GRID,270,0,5.644319,3.898205,0.500000,0
GRID,271,0,5.689552,3.744732,0.500000,0
GRID,272,0,5.734784,3.591259,0.500000,0
GRID,273,0,5.780017,3.437786,0.500000,0
GRID,274,0,5.825249,3.284312,0.500000,0
GRID,275,0,5.870482,3.130839,0.500000,0
GRID,276,0,5.915715,2.977366,0.500000,0
GRID,277,0,5.960947,2.823893,0.500000,0
GRID,278,0,5.572948,5.378410,0.500000,0
GRID,279,0,6.318050,2.850296,0.500000,0
GRID,280,0,5.618181,5.224937,0.500000,0
GRID,281,0,5.663413,5.071463,0.500000,0
GRID,282,0,5.708646,4.917990,0.500000,0
GRID,283,0,5.753878,4.764517,0.500000,0
GRID,284,0,5.799111,4.611044,0.500000,0
GRID,285,0,5.844344,4.457571,0.500000,0
GRID,286,0,5.889576,4.304098,0.500000,0
GRID,287,0,5.934809,4.150625,0.500000,0
GRID,288,0,5.980041,3.997151,0.500000,0
GRID,289,0,6.025274,3.843678,0.500000,0
GRID,290,0,6.070507,3.690205,0.500000,0
GRID,291,0,6.115739,3.536732,0.500000,0
GRID,292,0,6.160972,3.383259,0.500000,0
GRID,293,0,6.206204,3.229786,0.500000,0
GRID,294,0,6.251437,3.076312,0.500000,0
GRID,295,0,6.296670,2.922839,0.500000,0
GRID,296,0,5.908670,5.477356,0.500000,0
GRID,297,0,6.639056,2.999174,0.500000,0
GRID,298,0,5.953903,5.323883,0.500000,0
GRID,299,0,5.999136,5.170410,0.500000,0
GRID,300,0,6.044368,5.016937,0.500000,0
GRID,301,0,6.089601,4.863463,0.500000,0
GRID,302,0,6.134834,4.709990,0.500000,0
GRID,303,0,6.180066,4.556517,0.500000,0
GRID,304,0,6.225299,4.403044,0.500000,0
GRID,305,0,6.270531,4.249571,0.500000,0
GRID,306,0,6.315764,4.096098,0.500000,0
GRID,307,0,6.360997,3.942625,0.500000,0
GRID,308,0,6.406229,3.789151,0.500000,0
GRID,309,0,6.451462,3.635678,0.500000,0
GRID,310,0,6.496694,3.482205,0.500000,0
GRID,311,0,6.541927,3.328732,0.500000,0
GRID,312,0,6.587160,3.175259,0.500000,0
GRID,313,0,6.632392,3.021786,0.500000,0
GRID,314,0,6.244393,5.576302,0.500000,0
GRID,315,0,6.960063,3.148052,0.500000,0
GRID,316,0,6.289626,5.422829,0.500000,0
GRID,317,0,6.334858,5.269356,0.500000,0
GRID,318,0,6.380091,5.115883,0.500000,0
GRID,319,0,6.425323,4.962410,0.500000,0
GRID,320,0,6.470556,4.808937,0.500000,0
GRID,321,0,6.515789,4.655464,0.500000,0
GRID,322,0,6.561021,4.501990,0.500000,0
GRID,323,0,6.606254,4.348517,0.500000,0
GRID,324,0,6.651486,4.195044,0.500000,0
GRID,325,0,6.696719,4.041571,0.500000,0
GRID,326,0,6.741952,3.888098,0.500000,0
GRID,327,0,6.787184,3.734625,0.500000,0
GRID,328,0,6.832417,3.581151,0.500000,0
GRID,329,0,6.877650,3.427678,0.500000,0
GRID,330,0,6.922882,3.274205,0.500000,0
GRID,331,0,6.580115,5.675249,0.500000,0
GRID,332,0,7.281069,3.296929,0.500000,0
GRID,333,0,6.625348,5.521776,0.500000,0
GRID,334,0,6.670581,5.368303,0.500000,0
GRID,335,0,6.715813,5.214829,0.500000,0
GRID,336,0,6.761046,5.061356,0.500000,0
GRID,337,0,6.806279,4.907883,0.500000,0
GRID,338,0,6.851511,4.754410,0.500000,0
GRID,339,0,6.896744,4.600937,0.500000,0
GRID,340,0,6.941976,4.447464,0.500000,0
GRID,341,0,6.987209,4.293990,0.500000,0
GRID,342,0,7.032442,4.140517,0.500000,0
GRID,343,0,7.077674,3.987044,0.500000,0
GRID,344,0,7.122907,3.833571,0.500000,0
GRID,345,0,7.168139,3.680098,0.500000,0
GRID,346,0,7.213372,3.526625,0.500000,0
GRID,347,0,7.258605,3.373151,0.500000,0
GRID,348,0,6.915838,5.774195,0.500000,0
GRID,349,0,7.602076,3.445807,0.500000,0
GRID,350,0,6.961071,5.620722,0.500000,0
GRID,351,0,7.006303,5.467249,0.500000,0
GRID,352,0,7.051536,5.313776,0.500000,0
GRID,353,0,7.096768,5.160303,0.500000,0
GRID,354,0,7.142001,5.006829,0.500000,0
GRID,355,0,7.187234,4.853356,0.500000,0
GRID,356,0,7.232466,4.699883,0.500000,0
GRID,357,0,7.277699,4.546410,0.500000,0
GRID,358,0,7.322932,4.392937,0.500000,0
GRID,359,0,7.368164,4.239464,0.500000,0
GRID,360,0,7.413397,4.085990,0.500000,0
GRID,361,0,7.458629,3.932517,0.500000,0
GRID,362,0,7.503862,3.779044,0.500000,0
GRID,363,0,7.549095,3.625571,0.500000,0
GRID,364,0,7.594327,3.472098,0.500000,0
GRID,365,0,7.251561,5.873142,0.500000,0
GRID,366,0,7.923082,3.594685,0.500000,0
GRID,367,0,7.296793,5.719668,0.500000,0
GRID,368,0,7.342026,5.566195,0.500000,0
GRID,369,0,7.387258,5.412722,0.500000,0
GRID,370,0,7.432491,5.259249,0.500000,0
GRID,371,0,7.477724,5.105776,0.500000,0
GRID,372,0,7.522956,4.952303,0.500000,0
GRID,373,0,7.568189,4.798829,0.500000,0
GRID,374,0,7.613421,4.645356,0.500000,0
GRID,375,0,7.658654,4.491883,0.500000,0
GRID,376,0,7.703887,4.338410,0.500000,0
GRID,377,0,7.749119,4.184937,0.500000,0
GRID,378,0,7.794352,4.031464,0.500000,0
GRID,379,0,7.839585,3.877990,0.500000,0
GRID,380,0,7.884817,3.724517,0.500000,0
GRID,381,0,7.587283,5.972088,0.500000,0
GRID,382,0,8.244089,3.743562,0.500000,0
GRID,383,0,7.632516,5.818615,0.500000,0
GRID,384,0,7.677748,5.665142,0.500000,0
GRID,385,0,7.722981,5.511668,0.500000,0
GRID,386,0,7.768214,5.358195,0.500000,0
GRID,387,0,7.813446,5.204722,0.500000,0
GRID,388,0,7.858679,5.051249,0.500000,0
GRID,389,0,7.903911,4.897776,0.500000,0
GRID,390,0,7.949144,4.744303,0.500000,0
GRID,391,0,7.994377,4.590829,0.500000,0
GRID,392,0,8.039609,4.437356,0.500000,0
GRID,393,0,8.084842,4.283883,0.500000,0
GRID,394,0,8.130074,4.130410,0.500000,0
GRID,395,0,8.175307,3.976937,0.500000,0
GRID,396,0,8.220540,3.823464,0.500000,0
GRID,397,0,7.923006,6.071034,0.500000,0
GRID,398,0,8.565095,3.892440,0.500000,0
GRID,399,0,7.968238,5.917561,0.500000,0
GRID,400,0,8.013471,5.764088,0.500000,0
GRID,401,0,8.058703,5.610615,0.500000,0
GRID,402,0,8.103936,5.457142,0.500000,0
GRID,403,0,8.149169,5.303668,0.500000,0
GRID,404,0,8.194401,5.150195,0.500000,0
GRID,405,0,8.239634,4.996722,0.500000,0
GRID,406,0,8.284867,4.843249,0.500000,0
GRID,407,0,8.330099,4.689776,0.500000,0
GRID,408,0,8.375332,4.536303,0.500000,0
GRID,409,0,8.420564,4.382829,0.500000,0
GRID,410,0,8.465797,4.229356,0.500000,0
GRID,411,0,8.511030,4.075883,0.500000,0
GRID,412,0,8.556262,3.922410,0.500000,0
GRID,413,0,8.258728,6.169981,0.500000,0
GRID,414,0,8.886102,4.041318,0.500000,0
GRID,415,0,8.303961,6.016507,0.500000,0
GRID,416,0,8.349193,5.863034,0.500000,0
GRID,417,0,8.394426,5.709561,0.500000,0
GRID,418,0,8.439659,5.556088,0.500000,0
GRID,419,0,8.484891,5.402615,0.500000,0
GRID,420,0,8.530124,5.249142,0.500000,0
GRID,421,0,8.575356,5.095668,0.500000,0
GRID,422,0,8.620589,4.942195,0.500000,0
GRID,423,0,8.665822,4.788722,0.500000,0
GRID,424,0,8.711054,4.635249,0.500000,0
GRID,425,0,8.756287,4.481776,0.500000,0
GRID,426,0,8.801520,4.328303,0.500000,0
GRID,427,0,8.846752,4.174829,0.500000,0
GRID,428,0,8.594451,6.268927,0.500000,0
GRID,429,0,9.207108,4.190195,0.500000,0
GRID,430,0,8.639683,6.115454,0.500000,0
GRID,431,0,8.684916,5.961981,0.500000,0
GRID,432,0,8.730149,5.808507,0.500000,0
GRID,433,0,8.775381,5.655034,0.500000,0
GRID,434,0,8.820614,5.501561,0.500000,0
GRID,435,0,8.865846,5.348088,0.500000,0
GRID,436,0,8.911079,5.194615,0.500000,0
GRID,437,0,8.956312,5.041142,0.500000,0
GRID,438,0,9.001544,4.887668,0.500000,0
GRID,439,0,9.046777,4.734195,0.500000,0
GRID,440,0,9.092009,4.580722,0.500000,0
GRID,441,0,9.137242,4.427249,0.500000,0
GRID,442,0,9.182475,4.273776,0.500000,0
GRID,443,0,8.930173,6.367873,0.500000,0
GRID,444,0,9.528115,4.339073,0.500000,0
GRID,445,0,8.975406,6.214400,0.500000,0
GRID,446,0,9.020638,6.060927,0.500000,0
GRID,447,0,9.065871,5.907454,0.500000,0
GRID,448,0,9.111104,5.753981,0.500000,0
GRID,449,0,9.156336,5.600507,0.500000,0
GRID,450,0,9.201569,5.447034,0.500000,0
GRID,451,0,9.246802,5.293561,0.500000,0
GRID,452,0,9.292034,5.140088,0.500000,0
GRID,453,0,9.337267,4.986615,0.500000,0
GRID,454,0,9.382499,4.833142,0.500000,0
GRID,455,0,9.427732,4.679668,0.500000,0
GRID,456,0,9.472965,4.526195,0.500000,0
GRID,457,0,9.518197,4.372722,0.500000,0
GRID,458,0,9.265896,6.466820,0.500000,0
GRID,459,0,9.849121,4.487951,0.500000,0
GRID,460,0,9.311128,6.313346,0.500000,0
GRID,461,0,9.356361,6.159873,0.500000,0
GRID,462,0,9.401594,6.006400,0.500000,0
GRID,463,0,9.446826,5.852927,0.500000,0
GRID,464,0,9.492059,5.699454,0.500000,0
GRID,465,0,9.537291,5.545981,0.500000,0
GRID,466,0,9.582524,5.392507,0.500000,0
GRID,467,0,9.627757,5.239034,0.500000,0
GRID,468,0,9.672989,5.085561,0.500000,0
GRID,469,0,9.718222,4.932088,0.500000,0
GRID,470,0,9.763455,4.778615,0.500000,0
GRID,471,0,9.808687,4.625142,0.500000,0
GRID,472,0,9.601618,6.565766,0.500000,0
GRID,473,0,10.170127,4.636828,0.500000,0
GRID,474,0,9.646851,6.412293,0.500000,0
GRID,475,0,9.692084,6.258820,0.500000,0
GRID,476,0,9.737316,6.105346,0.500000,0
GRID,477,0,9.782549,5.951873,0.500000,0
GRID,478,0,9.827781,5.798400,0.500000,0
GRID,479,0,9.873014,5.644927,0.500000,0
GRID,480,0,9.918247,5.491454,0.500000,0
GRID,481,0,9.963479,5.337981,0.500000,0
GRID,482,0,10.008712,5.184507,0.500000,0
GRID,483,0,10.053944,5.031034,0.500000,0
GRID,484,0,10.099177,4.877561,0.500000,0
GRID,485,0,10.144410,4.724088,0.500000,0
GRID,486,0,9.937341,6.664712,0.500000,0
GRID,487,0,10.491134,4.785706,0.500000,0
GRID,488,0,9.982573,6.511239,0.500000,0
GRID,489,0,10.027806,6.357766,0.500000,0
GRID,490,0,10.073039,6.204293,0.500000,0
GRID,491,0,10.118271,6.050820,0.500000,0
GRID,492,0,10.163504,5.897346,0.500000,0
GRID,493,0,10.208737,5.743873,0.500000,0
GRID,494,0,10.253969,5.590400,0.500000,0
GRID,495,0,10.299202,5.436927,0.500000,0
GRID,496,0,10.344434,5.283454,0.500000,0
GRID,497,0,10.389667,5.129981,0.500000,0
GRID,498,0,10.434900,4.976508,0.500000,0
GRID,499,0,10.480132,4.823034,0.500000,0
GRID,500,0,10.273063,6.763659,0.500000,0
GRID,501,0,10.812140,4.934584,0.500000,0
GRID,502,0,10.318296,6.610185,0.500000,0
GRID,503,0,10.363529,6.456712,0.500000,0
GRID,504,0,10.408761,6.303239,0.500000,0
GRID,505,0,10.453994,6.149766,0.500000,0
GRID,506,0,10.499226,5.996293,0.500000,0
GRID,507,0,10.544459,5.842820,0.500000,0
GRID,508,0,10.589692,5.689346,0.500000,0
GRID,509,0,10.634924,5.535873,0.500000,0
GRID,510,0,10.680157,5.382400,0.500000,0
GRID,511,0,10.725390,5.228927,0.500000,0
GRID,512,0,10.770622,5.075454,0.500000,0
GRID,513,0,10.608786,6.862605,0.500000,0
GRID,514,0,11.133147,5.083461,0.500000,0
GRID,515,0,10.654019,6.709132,0.500000,0
GRID,516,0,10.699251,6.555659,0.500000,0
GRID,517,0,10.744484,6.402185,0.500000,0
GRID,518,0,10.789716,6.248712,0.500000,0
GRID,519,0,10.834949,6.095239,0.500000,0
GRID,520,0,10.880182,5.941766,0.500000,0
GRID,521,0,10.925414,5.788293,0.500000,0
GRID,522,0,10.970647,5.634820,0.500000,0
GRID,523,0,11.015879,5.481347,0.500000,0
GRID,524,0,11.061112,5.327873,0.500000,0
GRID,525,0,11.106345,5.174400,0.500000,0
GRID,526,0,10.944508,6.961551,0.500000,0
GRID,527,0,11.454153,5.232339,0.500000,0
GRID,528,0,10.989741,6.808078,0.500000,0
GRID,529,0,11.034974,6.654605,0.500000,0
GRID,530,0,11.080206,6.501132,0.500000,0
GRID,531,0,11.125439,6.347659,0.500000,0
GRID,532,0,11.170672,6.194185,0.500000,0
GRID,533,0,11.215904,6.040712,0.500000,0
GRID,534,0,11.261137,5.887239,0.500000,0
GRID,535,0,11.306369,5.733766,0.500000,0
GRID,536,0,11.351602,5.580293,0.500000,0
GRID,537,0,11.396835,5.426820,0.500000,0
GRID,538,0,11.442067,5.273347,0.500000,0
GRID,539,0,11.280231,7.060498,0.500000,0
GRID,540,0,11.775160,5.381217,0.500000,0
GRID,541,0,11.325464,6.907024,0.500000,0
GRID,542,0,11.370696,6.753551,0.500000,0
GRID,543,0,11.415929,6.600078,0.500000,0
GRID,544,0,11.461161,6.446605,0.500000,0
GRID,545,0,11.506394,6.293132,0.500000,0
GRID,546,0,11.551627,6.139659,0.500000,0
GRID,547,0,11.596859,5.986186,0.500000,0
GRID,548,0,11.642092,5.832712,0.500000,0
GRID,549,0,11.687325,5.679239,0.500000,0
GRID,550,0,11.732557,5.525766,0.500000,0
GRID,551,0,11.615954,7.159444,0.500000,0
GRID,552,0,12.096166,5.530094,0.500000,0
GRID,553,0,11.661186,7.005971,0.500000,0
GRID,554,0,11.706419,6.852498,0.500000,0
GRID,555,0,11.751651,6.699025,0.500000,0
GRID,556,0,11.796884,6.545551,0.500000,0
GRID,557,0,11.842117,6.392078,0.500000,0
GRID,558,0,11.887349,6.238605,0.500000,0
GRID,559,0,11.932582,6.085132,0.500000,0
GRID,560,0,11.977814,5.931659,0.500000,0
GRID,561,0,12.023047,5.778186,0.500000,0
GRID,562,0,12.068280,5.624712,0.500000,0
GRID,563,0,11.951676,7.258390,0.500000,0
GRID,564,0,12.417173,5.678972,0.500000,0
GRID,565,0,11.996909,7.104917,0.500000,0
GRID,566,0,12.042141,6.951444,0.500000,0
GRID,567,0,12.087374,6.797971,0.500000,0
GRID,568,0,12.132607,6.644498,0.500000,0
GRID,569,0,12.177839,6.491025,0.500000,0
GRID,570,0,12.223072,6.337551,0.500000,0
GRID,571,0,12.268304,6.184078,0.500000,0
GRID,572,0,12.313537,6.030605,0.500000,0
GRID,573,0,12.358770,5.877132,0.500000,0
GRID,574,0,12.404002,5.723659,0.500000,0
GRID,575,0,12.287399,7.357337,0.500000,0
GRID,576,0,12.738179,5.827849,0.500000,0
GRID,577,0,12.332631,7.203864,0.500000,0
GRID,578,0,12.377864,7.050390,0.500000,0
GRID,579,0,12.423096,6.896917,0.500000,0
GRID,580,0,12.468329,6.743444,0.500000,0
GRID,581,0,12.513562,6.589971,0.500000,0
GRID,582,0,12.558794,6.436498,0.500000,0
GRID,583,0,12.604027,6.283025,0.500000,0
GRID,584,0,12.649260,6.129551,0.500000,0
GRID,585,0,12.694492,5.976078,0.500000,0
GRID,586,0,12.623121,7.456283,0.500000,0
GRID,587,0,13.059186,5.976727,0.500000,0
GRID,588,0,12.668354,7.302810,0.500000,0
GRID,589,0,12.713586,7.149337,0.500000,0
GRID,590,0,12.758819,6.995864,0.500000,0
GRID,591,0,12.804052,6.842390,0.500000,0
GRID,592,0,12.849284,6.688917,0.500000,0
GRID,593,0,12.894517,6.535444,0.500000,0
GRID,594,0,12.939749,6.381971,0.500000,0
GRID,595,0,12.984982,6.228498,0.500000,0
GRID,596,0,13.030215,6.075025,0.500000,0
GRID,597,0,12.958844,7.555229,0.500000,0
GRID,598,0,13.380192,6.125605,0.500000,0
GRID,599,0,13.004076,7.401756,0.500000,0
GRID,600,0,13.049309,7.248283,0.500000,0
GRID,601,0,13.094542,7.094810,0.500000,0
GRID,602,0,13.139774,6.941337,0.500000,0
GRID,603,0,13.185007,6.787864,0.500000,0
GRID,604,0,13.230239,6.634390,0.500000,0
GRID,605,0,13.275472,6.480917,0.500000,0
GRID,606,0,13.320705,6.327444,0.500000,0
GRID,607,0,13.365937,6.173971,0.500000,0
GRID,608,0,13.294566,7.654176,0.500000,0
GRID,609,0,13.701198,6.274482,0.500000,0
GRID,610,0,13.339799,7.500703,0.500000,0
GRID,611,0,13.385031,7.347229,0.500000,0
GRID,612,0,13.430264,7.193756,0.500000,0
GRID,613,0,13.475497,7.040283,0.500000,0
GRID,614,0,13.520729,6.886810,0.500000,0
GRID,615,0,13.565962,6.733337,0.500000,0
GRID,616,0,13.611195,6.579864,0.500000,0
GRID,617,0,13.656427,6.426390,0.500000,0
GRID,618,0,13.630289,7.753122,0.500000,0
GRID,619,0,14.022205,6.423360,0.500000,0
GRID,620,0,13.675521,7.599649,0.500000,0
GRID,621,0,13.720754,7.446176,0.500000,0
GRID,622,0,13.765987,7.292703,0.500000,0
GRID,623,0,13.811219,7.139229,0.500000,0
GRID,624,0,13.856452,6.985756,0.500000,0
GRID,625,0,13.901684,6.832283,0.500000,0
GRID,626,0,13.946917,6.678810,0.500000,0
GRID,627,0,13.992150,6.525337,0.500000,0
GRID,628,0,13.966011,7.852068,0.500000,0
GRID,629,0,14.343211,6.572238,0.500000,0
GRID,630,0,14.011244,7.698595,0.500000,0
GRID,631,0,14.056477,7.545122,0.500000,0
GRID,632,0,14.101709,7.391649,0.500000,0
GRID,633,0,14.146942,7.238176,0.500000,0
GRID,634,0,14.192174,7.084703,0.500000,0
GRID,635,0,14.237407,6.931229,0.500000,0
GRID,636,0,14.282640,6.777756,0.500000,0
GRID,637,0,14.327872,6.624283,0.500000,0
GRID,638,0,14.301734,7.951015,0.500000,0
GRID,639,0,14.664218,6.721115,0.500000,0
GRID,640,0,14.346966,7.797542,0.500000,0
GRID,641,0,14.392199,7.644068,0.500000,0
GRID,642,0,14.437432,7.490595,0.500000,0
GRID,643,0,14.482664,7.337122,0.500000,0
GRID,644,0,14.527897,7.183649,0.500000,0
GRID,645,0,14.573130,7.030176,0.500000,0
GRID,646,0,14.618362,6.876703,0.500000,0
GRID,647,0,14.663595,6.723229,0.500000,0
GRID,648,0,14.637456,8.049961,0.500000,0
GRID,649,0,14.985224,6.869993,0.500000,0
GRID,650,0,14.682689,7.896488,0.500000,0
GRID,651,0,14.727922,7.743015,0.500000,0
GRID,652,0,14.773154,7.589542,0.500000,0
GRID,653,0,14.818387,7.436068,0.500000,0
GRID,654,0,14.863619,7.282595,0.500000,0
GRID,655,0,14.908852,7.129122,0.500000,0
GRID,656,0,14.954085,6.975649,0.500000,0
GRID,657,0,14.973179,8.148907,0.500000,0
GRID,658,0,15.306231,7.018871,0.500000,0
GRID,659,0,15.018412,7.995434,0.500000,0
GRID,660,0,15.063644,7.841961,0.500000,0
GRID,661,0,15.108877,7.688488,0.500000,0
GRID,662,0,15.154109,7.535015,0.500000,0
GRID,663,0,15.199342,7.381542,0.500000,0
GRID,664,0,15.244575,7.228068,0.500000,0
GRID,665,0,15.289807,7.074595,0.500000,0
GRID,666,0,15.308901,8.247854,0.500000,0
GRID,667,0,15.627237,7.167748,0.500000,0
GRID,668,0,15.354134,8.094381,0.500000,0
GRID,669,0,15.399367,7.940907,0.500000,0
GRID,670,0,15.444599,7.787434,0.500000,0
GRID,671,0,15.489832,7.633961,0.500000,0
GRID,672,0,15.535064,7.480488,0.500000,0
GRID,673,0,15.580297,7.327015,0.500000,0
GRID,674,0,15.625530,7.173542,0.500000,0
GRID,675,0,15.644624,8.346800,0.500000,0
GRID,676,0,15.948244,7.316626,0.500000,0
GRID,677,0,15.689857,8.193327,0.500000,0
GRID,678,0,15.735089,8.039854,0.500000,0
GRID,679,0,15.780322,7.886381,0.500000,0
GRID,680,0,15.825554,7.732907,0.500000,0
GRID,681,0,15.870787,7.579434,0.500000,0
GRID,682,0,15.916020,7.425961,0.500000,0
GRID,683,0,15.980346,8.445746,0.500000,0
GRID,684,0,16.269250,7.465504,0.500000,0
GRID,685,0,16.025579,8.292273,0.500000,0
GRID,686,0,16.070812,8.138800,0.500000,0
GRID,687,0,16.116044,7.985327,0.500000,0
GRID,688,0,16.161277,7.831854,0.500000,0
GRID,689,0,16.206510,7.678381,0.500000,0
GRID,690,0,16.251742,7.524908,0.500000,0
GRID,691,0,16.316069,8.544693,0.500000,0
GRID,692,0,16.590257,7.614381,0.500000,0
GRID,693,0,16.361302,8.391220,0.500000,0
GRID,694,0,16.406534,8.237746,0.500000,0
GRID,695,0,16.451767,8.084273,0.500000,0
GRID,696,0,16.496999,7.930800,0.500000,0
GRID,697,0,16.542232,7.777327,0.500000,0
GRID,698,0,16.587465,7.623854,0.500000,0
GRID,699,0,16.651792,8.643639,0.500000,0
GRID,700,0,16.911263,7.763259,0.500000,0
GRID,701,0,16.697024,8.490166,0.500000,0
GRID,702,0,16.742257,8.336693,0.500000,0
GRID,703,0,16.787489,8.183220,0.500000,0
GRID,704,0,16.832722,8.029747,0.500000,0
GRID,705,0,16.877955,7.876273,0.500000,0
GRID,706,0,16.605923,7.796098,0.500000,0
GRID,707,0,15.619250,7.338495,0.500000,0
GRID,708,0,14.632577,6.880892,0.500000,0
GRID,709,0,13.645904,6.423289,0.500000,0
GRID,710,0,12.659230,5.965686,0.500000,0
GRID,711,0,11.672557,5.508083,0.500000,0
GRID,712,0,10.685884,5.050479,0.500000,0
GRID,713,0,9.699211,4.592876,0.500000,0
GRID,714,0,8.712538,4.135273,0.500000,0
GRID,715,0,7.725865,3.677670,0.500000,0
GRID,716,0,6.739192,3.220067,0.500000,0
GRID,717,0,5.752519,2.762464,0.500000,0
GRID,718,0,4.765846,2.304860,0.500000,0
GRID,719,0,3.779173,1.847257,0.500000,0
GRID,720,0,2.792500,1.389654,0.500000,0
GRID,721,0,1.813911,0.641955,0.500000,0
GRID,722,0,1.782954,0.746991,0.500000,0
GRID,723,0,1.925233,2.968896,0.500000,0
GRID,724,0,1.925233,1.634461,0.500000,0
GRID,725,0,1.880000,0.792000,0.500000,0
GRID,726,0,0.000000,4.290000,0.500000,0
GRID,727,0,0.000000,0.792000,0.500000,0
GRID,728,0,0.000000,4.123196,0.500000,0
GRID,729,0,0.000000,3.956391,0.500000,0
GRID,730,0,0.000000,3.789587,0.500000,0
GRID,731,0,0.000000,3.622782,0.500000,0
GRID,732,0,0.000000,3.455978,0.500000,0
GRID,733,0,0.000000,3.289174,0.500000,0
GRID,734,0,0.000000,3.122369,0.500000,0
GRID,735,0,0.000000,2.955565,0.500000,0
GRID,736,0,0.000000,2.788760,0.500000,0
GRID,737,0,0.000000,2.621956,0.500000,0
GRID,738,0,0.000000,2.455151,0.500000,0
GRID,739,0,0.000000,2.288347,0.500000,0
GRID,740,0,0.000000,2.121543,0.500000,0
GRID,741,0,0.000000,1.954738,0.500000,0
GRID,742,0,0.000000,1.787934,0.500000,0
GRID,743,0,0.000000,1.621129,0.500000,0
GRID,744,0,0.000000,1.454325,0.500000,0
GRID,745,0,0.000000,1.287521,0.500000,0
GRID,746,0,0.000000,1.120716,0.500000,0
GRID,747,0,0.000000,0.953912,0.500000,0
GRID,748,0,0.590000,4.290000,0.500000,0
GRID,749,0,0.590000,0.792000,0.500000,0
GRID,750,0,0.590000,4.123196,0.500000,0
GRID,751,0,0.590000,3.956391,0.500000,0
GRID,752,0,0.590000,3.789587,0.500000,0
GRID,753,0,0.590000,3.622782,0.500000,0
GRID,754,0,0.590000,3.455978,0.500000,0
GRID,755,0,0.590000,3.289174,0.500000,0
GRID,756,0,0.590000,3.122369,0.500000,0
GRID,757,0,0.590000,2.955565,0.500000,0
GRID,758,0,0.590000,2.788760,0.500000,0
GRID,759,0,0.590000,2.621956,0.500000,0
GRID,760,0,0.590000,2.455151,0.500000,0
GRID,761,0,0.590000,2.288347,0.500000,0
GRID,762,0,0.590000,2.121543,0.500000,0
GRID,763,0,0.590000,1.954738,0.500000,0
GRID,764,0,0.590000,1.787934,0.500000,0
GRID,765,0,0.590000,1.621129,0.500000,0
GRID,766,0,0.590000,1.454325,0.500000,0
GRID,767,0,0.590000,1.287521,0.500000,0
GRID,768,0,0.590000,1.120716,0.500000,0
GRID,769,0,0.590000,0.953912,0.500000,0
GRID,770,0,1.180000,4.290000,0.500000,0
GRID,771,0,1.180000,0.792000,0.500000,0
GRID,772,0,1.180000,4.123196,0.500000,0
GRID,773,0,1.180000,3.956391,0.500000,0
GRID,774,0,1.180000,3.789587,0.500000,0
GRID,775,0,1.180000,3.622782,0.500000,0
GRID,776,0,1.180000,3.455978,0.500000,0
GRID,777,0,1.180000,3.289174,0.500000,0
GRID,778,0,1.180000,3.122369,0.500000,0
GRID,779,0,1.180000,2.955565,0.500000,0
GRID,780,0,1.180000,2.788760,0.500000,0
GRID,781,0,1.180000,2.621956,0.500000,0
GRID,782,0,1.180000,2.455151,0.500000,0
GRID,783,0,1.180000,2.288347,0.500000,0
GRID,784,0,1.180000,2.121543,0.500000,0
GRID,785,0,1.180000,1.954738,0.500000,0
GRID,786,0,1.180000,1.787934,0.500000,0
GRID,787,0,1.180000,1.621129,0.500000,0
GRID,788,0,1.180000,1.454325,0.500000,0
GRID,789,0,1.180000,1.287521,0.500000,0
GRID,790,0,1.180000,1.120716,0.500000,0
GRID,791,0,1.180000,0.953912,0.500000,0
GRID,792,0,1.530000,4.290000,0.500000,0
GRID,793,0,1.530000,0.792000,0.500000,0
GRID,794,0,1.530000,4.123196,0.500000,0
GRID,795,0,1.530000,3.956391,0.500000,0
GRID,796,0,1.530000,3.789587,0.500000,0
GRID,797,0,1.530000,3.622782,0.500000,0
GRID,798,0,1.530000,3.455978,0.500000,0
GRID,799,0,1.530000,3.289174,0.500000,0
GRID,800,0,1.530000,3.122369,0.500000,0
GRID,801,0,1.530000,2.955565,0.500000,0
GRID,802,0,1.530000,2.788760,0.500000,0
GRID,803,0,1.530000,2.621956,0.500000,0
GRID,804,0,1.530000,2.455151,0.500000,0
GRID,805,0,1.530000,2.288347,0.500000,0
GRID,806,0,1.530000,2.121543,0.500000,0
GRID,807,0,1.530000,1.954738,0.500000,0
GRID,808,0,1.530000,1.787934,0.500000,0
GRID,809,0,1.530000,1.621129,0.500000,0
GRID,810,0,1.530000,1.454325,0.500000,0
GRID,811,0,1.530000,1.287521,0.500000,0
GRID,812,0,1.530000,1.120716,0.500000,0
GRID,813,0,1.530000,0.953912,0.500000,0
GRID,814,0,1.880000,4.290000,0.500000,0
GRID,815,0,1.880000,0.792000,0.500000,0
GRID,816,0,1.880000,4.123196,0.500000,0
GRID,817,0,1.880000,3.956391,0.500000,0
GRID,818,0,1.880000,3.789587,0.500000,0
GRID,819,0,1.880000,3.622782,0.500000,0
GRID,820,0,1.880000,3.455978,0.500000,0
GRID,821,0,1.880000,3.289174,0.500000,0
GRID,822,0,1.880000,3.122369,0.500000,0
GRID,823,0,1.880000,2.955565,0.500000,0
GRID,824,0,1.880000,2.788760,0.500000,0
GRID,825,0,1.880000,2.621956,0.500000,0
GRID,826,0,1.880000,2.455151,0.500000,0
GRID,827,0,1.880000,2.288347,0.500000,0
GRID,828,0,1.880000,2.121543,0.500000,0
GRID,829,0,1.880000,1.954738,0.500000,0
GRID,830,0,1.880000,1.787934,0.500000,0
GRID,831,0,1.880000,1.621129,0.500000,0
GRID,832,0,1.880000,1.454325,0.500000,0
GRID,833,0,1.880000,1.287521,0.500000,0
GRID,834,0,1.880000,1.120716,0.500000,0
GRID,835,0,1.880000,0.953912,0.500000,0
GRID,836,0,16.651155,7.642625,-0.500000,0
GRID,837,0,15.664482,7.185022,-0.500000,0
GRID,838,0,14.677809,6.727419,-0.500000,0
GRID,839,0,13.691136,6.269816,-0.500000,0
GRID,840,0,12.704463,5.812213,-0.500000,0
GRID,841,0,11.717790,5.354609,-0.500000,0
GRID,842,0,10.731117,4.897006,-0.500000,0
GRID,843,0,9.744444,4.439403,-0.500000,0
GRID,844,0,8.757771,3.981800,-0.500000,0
GRID,845,0,7.771098,3.524197,-0.500000,0
GRID,846,0,6.784425,3.066594,-0.500000,0
GRID,847,0,5.797752,2.608990,-0.500000,0
GRID,848,0,4.811078,2.151387,-0.500000,0
GRID,849,0,3.824405,1.693784,-0.500000,0
GRID,850,0,2.837732,1.236181,-0.500000,0
GRID,851,0,1.880000,4.123196,-0.500000,0
GRID,852,0,1.880000,3.956391,-0.500000,0
GRID,853,0,1.880000,3.789587,-0.500000,0
GRID,854,0,1.880000,3.622782,-0.500000,0
GRID,855,0,1.880000,3.455978,-0.500000,0
GRID,856,0,1.880000,3.289174,-0.500000,0
GRID,857,0,1.880000,3.122369,-0.500000,0
GRID,858,0,1.880000,2.955565,-0.500000,0
GRID,859,0,1.880000,2.788760,-0.500000,0
GRID,860,0,1.880000,2.621956,-0.500000,0
GRID,861,0,1.880000,2.455151,-0.500000,0
GRID,862,0,1.880000,2.288347,-0.500000,0
GRID,863,0,1.880000,2.121543,-0.500000,0
GRID,864,0,1.880000,1.954738,-0.500000,0
GRID,865,0,1.880000,1.787934,-0.500000,0
GRID,866,0,1.880000,1.621129,-0.500000,0
GRID,867,0,1.880000,1.454325,-0.500000,0
GRID,868,0,1.880000,1.287521,-0.500000,0
GRID,869,0,1.880000,1.120716,-0.500000,0
GRID,870,0,1.880000,0.953912,-0.500000,0
GRID,871,0,1.813911,1.880000,-0.500000,0
GRID,872,0,0.914887,2.144966,-0.500000,0
GRID,873,0,1.889391,1.623897,-0.500000,0
GRID,874,0,1.934623,1.470424,-0.500000,0
GRID,875,0,1.979856,1.316951,-0.500000,0
GRID,876,0,2.025089,1.163478,-0.500000,0
GRID,877,0,2.070321,1.010005,-0.500000,0
GRID,878,0,1.846955,3.085000,-0.500000,0
GRID,879,0,1.850933,1.678804,-0.500000,0
GRID,880,0,1.884695,2.956949,-0.500000,0
GRID,881,0,1.929928,2.803475,-0.500000,0
GRID,882,0,1.975161,2.650002,-0.500000,0
GRID,883,0,2.020393,2.496529,-0.500000,0
GRID,884,0,2.065626,2.343056,-0.500000,0
GRID,885,0,2.110858,2.189583,-0.500000,0
GRID,886,0,2.156091,2.036110,-0.500000,0
GRID,887,0,2.201324,1.882636,-0.500000,0
GRID,888,0,2.246556,1.729163,-0.500000,0
GRID,889,0,2.291789,1.575690,-0.500000,0
GRID,890,0,2.337022,1.422217,-0.500000,0
GRID,891,0,2.382254,1.268744,-0.500000,0
GRID,892,0,2.427487,1.115271,-0.500000,0
GRID,893,0,1.880000,4.290000,-0.500000,0
GRID,894,0,2.786979,1.212642,-0.500000,0
GRID,895,0,1.925233,4.136527,-0.500000,0
GRID,896,0,1.970465,3.983054,-0.500000,0
GRID,897,0,2.015698,3.829581,-0.500000,0
GRID,898,0,2.060930,3.676107,-0.500000,0
GRID,899,0,2.106163,3.522634,-0.500000,0
GRID,900,0,2.151396,3.369161,-0.500000,0
GRID,901,0,2.196628,3.215688,-0.500000,0
GRID,902,0,2.241861,3.062215,-0.500000,0
GRID,903,0,2.287094,2.908742,-0.500000,0
GRID,904,0,2.332326,2.755268,-0.500000,0
GRID,905,0,2.377559,2.601795,-0.500000,0
GRID,906,0,2.422791,2.448322,-0.500000,0
GRID,907,0,2.468024,2.294849,-0.500000,0
GRID,908,0,2.513257,2.141376,-0.500000,0
GRID,909,0,2.558489,1.987903,-0.500000,0
GRID,910,0,2.603722,1.834429,-0.500000,0
GRID,911,0,2.648954,1.680956,-0.500000,0
GRID,912,0,2.694187,1.527483,-0.500000,0
GRID,913,0,2.739420,1.374010,-0.500000,0
GRID,914,0,2.784652,1.220537,-0.500000,0
GRID,915,0,2.215723,4.388946,-0.500000,0
GRID,916,0,3.107985,1.361520,-0.500000,0
GRID,917,0,2.260955,4.235473,-0.500000,0
GRID,918,0,2.306188,4.082000,-0.500000,0
GRID,919,0,2.351420,3.928527,-0.500000,0
GRID,920,0,2.396653,3.775054,-0.500000,0
GRID,921,0,2.441886,3.621581,-0.500000,0
GRID,922,0,2.487118,3.468107,-0.500000,0
GRID,923,0,2.532351,3.314634,-0.500000,0
GRID,924,0,2.577583,3.161161,-0.500000,0
GRID,925,0,2.622816,3.007688,-0.500000,0
GRID,926,0,2.668049,2.854215,-0.500000,0
GRID,927,0,2.713281,2.700742,-0.500000,0
GRID,928,0,2.758514,2.547268,-0.500000,0
GRID,929,0,2.803747,2.393795,-0.500000,0
GRID,930,0,2.848979,2.240322,-0.500000,0
GRID,931,0,2.894212,2.086849,-0.500000,0
GRID,932,0,2.939444,1.933376,-0.500000,0
GRID,933,0,2.984677,1.779903,-0.500000,0
GRID,934,0,3.029910,1.626429,-0.500000,0
GRID,935,0,3.075142,1.472956,-0.500000,0
GRID,936,0,2.551445,4.487893,-0.500000,0
GRID,937,0,3.428992,1.510398,-0.500000,0
GRID,938,0,2.596678,4.334420,-0.500000,0
GRID,939,0,2.641910,4.180946,-0.500000,0
GRID,940,0,2.687143,4.027473,-0.500000,0
GRID,941,0,2.732376,3.874000,-0.500000,0
GRID,942,0,2.777608,3.720527,-0.500000,0
GRID,943,0,2.822841,3.567054,-0.500000,0
GRID,944,0,2.868073,3.413581,-0.500000,0
GRID,945,0,2.913306,3.260107,-0.500000,0
GRID,946,0,2.958539,3.106634,-0.500000,0
GRID,947,0,3.003771,2.953161,-0.500000,0
GRID,948,0,3.049004,2.799688,-0.500000,0
GRID,949,0,3.094236,2.646215,-0.500000,0
GRID,950,0,3.139469,2.492742,-0.500000,0
GRID,951,0,3.184702,2.339268,-0.500000,0
GRID,952,0,3.229934,2.185795,-0.500000,0
GRID,953,0,3.275167,2.032322,-0.500000,0
GRID,954,0,3.320400,1.878849,-0.500000,0
GRID,955,0,3.365632,1.725376,-0.500000,0
GRID,956,0,3.410865,1.571903,-0.500000,0
GRID,957,0,2.887168,4.586839,-0.500000,0
GRID,958,0,3.749998,1.659275,-0.500000,0
GRID,959,0,2.932400,4.433366,-0.500000,0
GRID,960,0,2.977633,4.279893,-0.500000,0
GRID,961,0,3.022865,4.126420,-0.500000,0
GRID,962,0,3.068098,3.972946,-0.500000,0
GRID,963,0,3.113331,3.819473,-0.500000,0
GRID,964,0,3.158563,3.666000,-0.500000,0
GRID,965,0,3.203796,3.512527,-0.500000,0
GRID,966,0,3.249029,3.359054,-0.500000,0
GRID,967,0,3.294261,3.205581,-0.500000,0
GRID,968,0,3.339494,3.052107,-0.500000,0
GRID,969,0,3.384726,2.898634,-0.500000,0
GRID,970,0,3.429959,2.745161,-0.500000,0
GRID,971,0,3.475192,2.591688,-0.500000,0
GRID,972,0,3.520424,2.438215,-0.500000,0
GRID,973,0,3.565657,2.284742,-0.500000,0
GRID,974,0,3.610889,2.131268,-0.500000,0
GRID,975,0,3.656122,1.977795,-0.500000,0
GRID,976,0,3.701355,1.824322,-0.500000,0
GRID,977,0,3.746587,1.670849,-0.500000,0
GRID,978,0,3.222890,4.685785,-0.500000,0
GRID,979,0,4.071005,1.808153,-0.500000,0
GRID,980,0,3.268123,4.532312,-0.500000,0
GRID,981,0,3.313355,4.378839,-0.500000,0
GRID,982,0,3.358588,4.225366,-0.500000,0
GRID,983,0,3.403821,4.071893,-0.500000,0
GRID,984,0,3.449053,3.918420,-0.500000,0
GRID,985,0,3.494286,3.764946,-0.500000,0
GRID,986,0,3.539518,3.611473,-0.500000,0
GRID,987,0,3.584751,3.458000,-0.500000,0
GRID,988,0,3.629984,3.304527,-0.500000,0
GRID,989,0,3.675216,3.151054,-0.500000,0
GRID,990,0,3.720449,2.997581,-0.500000,0
GRID,991,0,3.765682,2.844107,-0.500000,0
GRID,992,0,3.810914,2.690634,-0.500000,0
GRID,993,0,3.856147,2.537161,-0.500000,0
GRID,994,0,3.901379,2.383688,-0.500000,0
GRID,995,0,3.946612,2.230215,-0.500000,0
GRID,996,0,3.991845,2.076742,-0.500000,0
GRID,997,0,4.037077,1.923269,-0.500000,0
GRID,998,0,3.558613,4.784732,-0.500000,0
GRID,999,0,4.392011,1.957031,-0.500000,0
GRID,1000,0,3.603845,4.631259,-0.500000,0
GRID,1001,0,3.649078,4.477785,-0.500000,0
GRID,1002,0,3.694311,4.324312,-0.500000,0
GRID,1003,0,3.739543,4.170839,-0.500000,0
GRID,1004,0,3.784776,4.017366,-0.500000,0
GRID,1005,0,3.830008,3.863893,-0.500000,0
GRID,1006,0,3.875241,3.710420,-0.500000,0
GRID,1007,0,3.920474,3.556946,-0.500000,0
GRID,1008,0,3.965706,3.403473,-0.500000,0
GRID,1009,0,4.010939,3.250000,-0.500000,0
GRID,1010,0,4.056171,3.096527,-0.500000,0
GRID,1011,0,4.101404,2.943054,-0.500000,0
GRID,1012,0,4.146637,2.789581,-0.500000,0
GRID,1013,0,4.191869,2.636107,-0.500000,0
GRID,1014,0,4.237102,2.482634,-0.500000,0
GRID,1015,0,4.282335,2.329161,-0.500000,0
GRID,1016,0,4.327567,2.175688,-0.500000,0
GRID,1017,0,4.372800,2.022215,-0.500000,0
GRID,1018,0,3.894335,4.883678,-0.500000,0
GRID,1019,0,4.713018,2.105908,-0.500000,0
GRID,1020,0,3.939568,4.730205,-0.500000,0
GRID,1021,0,3.984800,4.576732,-0.500000,0
GRID,1022,0,4.030033,4.423259,-0.500000,0
GRID,1023,0,4.075266,4.269785,-0.500000,0
GRID,1024,0,4.120498,4.116312,-0.500000,0
GRID,1025,0,4.165731,3.962839,-0.500000,0
GRID,1026,0,4.210964,3.809366,-0.500000,0
GRID,1027,0,4.256196,3.655893,-0.500000,0
GRID,1028,0,4.301429,3.502420,-0.500000,0
GRID,1029,0,4.346661,3.348946,-0.500000,0
GRID,1030,0,4.391894,3.195473,-0.500000,0
GRID,1031,0,4.437127,3.042000,-0.500000,0
GRID,1032,0,4.482359,2.888527,-0.500000,0
GRID,1033,0,4.527592,2.735054,-0.500000,0
GRID,1034,0,4.572824,2.581581,-0.500000,0
GRID,1035,0,4.618057,2.428108,-0.500000,0
GRID,1036,0,4.663290,2.274634,-0.500000,0
GRID,1037,0,4.708522,2.121161,-0.500000,0
GRID,1038,0,4.230058,4.982624,-0.500000,0
GRID,1039,0,5.034024,2.254786,-0.500000,0
GRID,1040,0,4.275290,4.829151,-0.500000,0
GRID,1041,0,4.320523,4.675678,-0.500000,0
GRID,1042,0,4.365756,4.522205,-0.500000,0
GRID,1043,0,4.410988,4.368732,-0.500000,0
GRID,1044,0,4.456221,4.215259,-0.500000,0
GRID,1045,0,4.501453,4.061785,-0.500000,0
GRID,1046,0,4.546686,3.908312,-0.500000,0
GRID,1047,0,4.591919,3.754839,-0.500000,0
GRID,1048,0,4.637151,3.601366,-0.500000,0
GRID,1049,0,4.682384,3.447893,-0.500000,0
GRID,1050,0,4.727617,3.294420,-0.500000,0
GRID,1051,0,4.772849,3.140946,-0.500000,0
GRID,1052,0,4.818082,2.987473,-0.500000,0
GRID,1053,0,4.863314,2.834000,-0.500000,0
GRID,1054,0,4.908547,2.680527,-0.500000,0
GRID,1055,0,4.953780,2.527054,-0.500000,0
GRID,1056,0,4.999012,2.373581,-0.500000,0
GRID,1057,0,4.565780,5.081571,-0.500000,0
GRID,1058,0,5.355031,2.403664,-0.500000,0
GRID,1059,0,4.611013,4.928098,-0.500000,0
GRID,1060,0,4.656246,4.774624,-0.500000,0
GRID,1061,0,4.701478,4.621151,-0.500000,0
GRID,1062,0,4.746711,4.467678,-0.500000,0
GRID,1063,0,4.791943,4.314205,-0.500000,0
GRID,1064,0,4.837176,4.160732,-0.500000,0
GRID,1065,0,4.882409,4.007259,-0.500000,0
GRID,1066,0,4.927641,3.853785,-0.500000,0
GRID,1067,0,4.972874,3.700312,-0.500000,0
GRID,1068,0,5.018106,3.546839,-0.500000,0
GRID,1069,0,5.063339,3.393366,-0.500000,0
GRID,1070,0,5.108572,3.239893,-0.500000,0
GRID,1071,0,5.153804,3.086420,-0.500000,0
GRID,1072,0,5.199037,2.932947,-0.500000,0
GRID,1073,0,5.244270,2.779473,-0.500000,0
GRID,1074,0,5.289502,2.626000,-0.500000,0
GRID,1075,0,5.334735,2.472527,-0.500000,0
GRID,1076,0,4.901503,5.180517,-0.500000,0
GRID,1077,0,5.676037,2.552541,-0.500000,0
GRID,1078,0,4.946735,5.027044,-0.500000,0
GRID,1079,0,4.991968,4.873571,-0.500000,0
GRID,1080,0,5.037201,4.720098,-0.500000,0
GRID,1081,0,5.082433,4.566624,-0.500000,0
GRID,1082,0,5.127666,4.413151,-0.500000,0
GRID,1083,0,5.172899,4.259678,-0.500000,0
GRID,1084,0,5.218131,4.106205,-0.500000,0
GRID,1085,0,5.263364,3.952732,-0.500000,0
GRID,1086,0,5.308596,3.799259,-0.500000,0
GRID,1087,0,5.353829,3.645786,-0.500000,0
GRID,1088,0,5.399062,3.492312,-0.500000,0
GRID,1089,0,5.444294,3.338839,-0.500000,0
GRID,1090,0,5.489527,3.185366,-0.500000,0
GRID,1091,0,5.534759,3.031893,-0.500000,0
GRID,1092,0,5.579992,2.878420,-0.500000,0
GRID,1093,0,5.625225,2.724947,-0.500000,0
GRID,1094,0,5.670457,2.571473,-0.500000,0
GRID,1095,0,5.237225,5.279463,-0.500000,0
GRID,1096,0,5.997044,2.701419,-0.500000,0
GRID,1097,0,5.282458,5.125990,-0.500000,0
GRID,1098,0,5.327691,4.972517,-0.500000,0
GRID,1099,0,5.372923,4.819044,-0.500000,0
GRID,1100,0,5.418156,4.665571,-0.500000,0
GRID,1101,0,5.463388,4.512098,-0.500000,0
GRID,1102,0,5.508621,4.358624,-0.500000,0
GRID,1103,0,5.553854,4.205151,-0.500000,0
GRID,1104,0,5.599086,4.051678,-0.500000,0
GRID,1105,0,5.644319,3.898205,-0.500000,0
GRID,1106,0,5.689552,3.744732,-0.500000,0
GRID,1107,0,5.734784,3.591259,-0.500000,0
GRID,1108,0,5.780017,3.437786,-0.500000,0
GRID,1109,0,5.825249,3.284312,-0.500000,0
GRID,1110,0,5.870482,3.130839,-0.500000,0
GRID,1111,0,5.915715,2.977366,-0.500000,0
GRID,1112,0,5.960947,2.823893,-0.500000,0
GRID,1113,0,5.572948,5.378410,-0.500000,0
GRID,1114,0,6.318050,2.850296,-0.500000,0
GRID,1115,0,5.618181,5.224937,-0.500000,0
GRID,1116,0,5.663413,5.071463,-0.500000,0
GRID,1117,0,5.708646,4.917990,-0.500000,0
GRID,1118,0,5.753878,4.764517,-0.500000,0
GRID,1119,0,5.799111,4.611044,-0.500000,0
GRID,1120,0,5.844344,4.457571,-0.500000,0
GRID,1121,0,5.889576,4.304098,-0.500000,0
GRID,1122,0,5.934809,4.150625,-0.500000,0
GRID,1123,0,5.980041,3.997151,-0.500000,0
GRID,1124,0,6.025274,3.843678,-0.500000,0
GRID,1125,0,6.070507,3.690205,-0.500000,0
GRID,1126,0,6.115739,3.536732,-0.500000,0
GRID,1127,0,6.160972,3.383259,-0.500000,0
GRID,1128,0,6.206204,3.229786,-0.500000,0
GRID,1129,0,6.251437,3.076312,-0.500000,0
GRID,1130,0,6.296670,2.922839,-0.500000,0
GRID,1131,0,5.908670,5.477356,-0.500000,0
GRID,1132,0,6.639056,2.999174,-0.500000,0
GRID,1133,0,5.953903,5.323883,-0.500000,0
GRID,1134,0,5.999136,5.170410,-0.500000,0
GRID,1135,0,6.044368,5.016937,-0.500000,0
GRID,1136,0,6.089601,4.863463,-0.500000,0
GRID,1137,0,6.134834,4.709990,-0.500000,0
GRID,1138,0,6.180066,4.556517,-0.500000,0
GRID,1139,0,6.225299,4.403044,-0.500000,0
GRID,1140,0,6.270531,4.249571,-0.500000,0
GRID,1141,0,6.315764,4.096098,-0.500000,0
GRID,1142,0,6.360997,3.942625,-0.500000,0
GRID,1143,0,6.406229,3.789151,-0.500000,0
GRID,1144,0,6.451462,3.635678,-0.500000,0
GRID,1145,0,6.496694,3.482205,-0.500000,0
GRID,1146,0,6.541927,3.328732,-0.500000,0
GRID,1147,0,6.587160,3.175259,-0.500000,0
GRID,1148,0,6.632392,3.021786,-0.500000,0
GRID,1149,0,6.244393,5.576302,-0.500000,0
GRID,1150,0,6.960063,3.148052,-0.500000,0
GRID,1151,0,6.289626,5.422829,-0.500000,0
GRID,1152,0,6.334858,5.269356,-0.500000,0
GRID,1153,0,6.380091,5.115883,-0.500000,0
GRID,1154,0,6.425323,4.962410,-0.500000,0
GRID,1155,0,6.470556,4.808937,-0.500000,0
GRID,1156,0,6.515789,4.655464,-0.500000,0
GRID,1157,0,6.561021,4.501990,-0.500000,0
GRID,1158,0,6.606254,4.348517,-0.500000,0
GRID,1159,0,6.651486,4.195044,-0.500000,0
GRID,1160,0,6.696719,4.041571,-0.500000,0
GRID,1161,0,6.741952,3.888098,-0.500000,0
GRID,1162,0,6.787184,3.734625,-0.500000,0
GRID,1163,0,6.832417,3.581151,-0.500000,0
GRID,1164,0,6.877650,3.427678,-0.500000,0
GRID,1165,0,6.922882,3.274205,-0.500000,0
GRID,1166,0,6.580115,5.675249,-0.500000,0
GRID,1167,0,7.281069,3.296929,-0.500000,0
GRID,1168,0,6.625348,5.521776,-0.500000,0
GRID,1169,0,6.670581,5.368303,-0.500000,0
GRID,1170,0,6.715813,5.214829,-0.500000,0
GRID,1171,0,6.761046,5.061356,-0.500000,0
GRID,1172,0,6.806279,4.907883,-0.500000,0
GRID,1173,0,6.851511,4.754410,-0.500000,0
GRID,1174,0,6.896744,4.600937,-0.500000,0
GRID,1175,0,6.941976,4.447464,-0.500000,0
GRID,1176,0,6.987209,4.293990,-0.500000,0
GRID,1177,0,7.032442,4.140517,-0.500000,0
GRID,1178,0,7.077674,3.987044,-0.500000,0
GRID,1179,0,7.122907,3.833571,-0.500000,0
GRID,1180,0,7.168139,3.680098,-0.500000,0
GRID,1181,0,7.213372,3.526625,-0.500000,0
GRID,1182,0,7.258605,3.373151,-0.500000,0
GRID,1183,0,6.915838,5.774195,-0.500000,0
GRID,1184,0,7.602076,3.445807,-0.500000,0
GRID,1185,0,6.961071,5.620722,-0.500000,0
GRID,1186,0,7.006303,5.467249,-0.500000,0
GRID,1187,0,7.051536,5.313776,-0.500000,0
GRID,1188,0,7.096768,5.160303,-0.500000,0
GRID,1189,0,7.142001,5.006829,-0.500000,0
GRID,1190,0,7.187234,4.853356,-0.500000,0
GRID,1191,0,7.232466,4.699883,-0.500000,0
GRID,1192,0,7.277699,4.546410,-0.500000,0
GRID,1193,0,7.322932,4.392937,-0.500000,0
GRID,1194,0,7.368164,4.239464,-0.500000,0
GRID,1195,0,7.413397,4.085990,-0.500000,0
GRID,1196,0,7.458629,3.932517,-0.500000,0
GRID,1197,0,7.503862,3.779044,-0.500000,0
GRID,1198,0,7.549095,3.625571,-0.500000,0
GRID,1199,0,7.594327,3.472098,-0.500000,0
GRID,1200,0,7.251561,5.873142,-0.500000,0
GRID,1201,0,7.923082,3.594685,-0.500000,0
GRID,1202,0,7.296793,5.719668,-0.500000,0
GRID,1203,0,7.342026,5.566195,-0.500000,0
GRID,1204,0,7.387258,5.412722,-0.500000,0
GRID,1205,0,7.432491,5.259249,-0.500000,0
GRID,1206,0,7.477724,5.105776,-0.500000,0
GRID,1207,0,7.522956,4.952303,-0.500000,0
GRID,1208,0,7.568189,4.798829,-0.500000,0
GRID,1209,0,7.613421,4.645356,-0.500000,0
GRID,1210,0,7.658654,4.491883,-0.500000,0
GRID,1211,0,7.703887,4.338410,-0.500000,0
GRID,1212,0,7.749119,4.184937,-0.500000,0
GRID,1213,0,7.794352,4.031464,-0.500000,0
GRID,1214,0,7.839585,3.877990,-0.500000,0
GRID,1215,0,7.884817,3.724517,-0.500000,0
GRID,1216,0,7.587283,5.972088,-0.500000,0
GRID,1217,0,8.244089,3.743562,-0.500000,0
GRID,1218,0,7.632516,5.818615,-0.500000,0
GRID,1219,0,7.677748,5.665142,-0.500000,0
GRID,1220,0,7.722981,5.511668,-0.500000,0
GRID,1221,0,7.768214,5.358195,-0.500000,0
GRID,1222,0,7.813446,5.204722,-0.500000,0
GRID,1223,0,7.858679,5.051249,-0.500000,0
GRID,1224,0,7.903911,4.897776,-0.500000,0
GRID,1225,0,7.949144,4.744303,-0.500000,0
GRID,1226,0,7.994377,4.590829,-0.500000,0
GRID,1227,0,8.039609,4.437356,-0.500000,0
GRID,1228,0,8.084842,4.283883,-0.500000,0
GRID,1229,0,8.130074,4.130410,-0.500000,0
GRID,1230,0,8.175307,3.976937,-0.500000,0
GRID,1231,0,8.220540,3.823464,-0.500000,0
GRID,1232,0,7.923006,6.071034,-0.500000,0
GRID,1233,0,8.565095,3.892440,-0.500000,0
GRID,1234,0,7.968238,5.917561,-0.500000,0
GRID,1235,0,8.013471,5.764088,-0.500000,0
GRID,1236,0,8.058703,5.610615,-0.500000,0
GRID,1237,0,8.103936,5.457142,-0.500000,0
GRID,1238,0,8.149169,5.303668,-0.500000,0
GRID,1239,0,8.194401,5.150195,-0.500000,0
GRID,1240,0,8.239634,4.996722,-0.500000,0
GRID,1241,0,8.284867,4.843249,-0.500000,0
GRID,1242,0,8.330099,4.689776,-0.500000,0
GRID,1243,0,8.375332,4.536303,-0.500000,0
GRID,1244,0,8.420564,4.382829,-0.500000,0
GRID,1245,0,8.465797,4.229356,-0.500000,0
GRID,1246,0,8.511030,4.075883,-0.500000,0
GRID,1247,0,8.556262,3.922410,-0.500000,0
GRID,1248,0,8.258728,6.169981,-0.500000,0
GRID,1249,0,8.886102,4.041318,-0.500000,0
GRID,1250,0,8.303961,6.016507,-0.500000,0
GRID,1251,0,8.349193,5.863034,-0.500000,0
GRID,1252,0,8.394426,5.709561,-0.500000,0
GRID,1253,0,8.439659,5.556088,-0.500000,0
GRID,1254,0,8.484891,5.402615,-0.500000,0
GRID,1255,0,8.530124,5.249142,-0.500000,0
GRID,1256,0,8.575356,5.095668,-0.500000,0
GRID,1257,0,8.620589,4.942195,-0.500000,0
GRID,1258,0,8.665822,4.788722,-0.500000,0
GRID,1259,0,8.711054,4.635249,-0.500000,0
GRID,1260,0,8.756287,4.481776,-0.500000,0
GRID,1261,0,8.801520,4.328303,-0.500000,0
GRID,1262,0,8.846752,4.174829,-0.500000,0
GRID,1263,0,8.594451,6.268927,-0.500000,0
GRID,1264,0,9.207108,4.190195,-0.500000,0
GRID,1265,0,8.639683,6.115454,-0.500000,0
GRID,1266,0,8.684916,5.961981,-0.500000,0
GRID,1267,0,8.730149,5.808507,-0.500000,0
GRID,1268,0,8.775381,5.655034,-0.500000,0
GRID,1269,0,8.820614,5.501561,-0.500000,0
GRID,1270,0,8.865846,5.348088,-0.500000,0
GRID,1271,0,8.911079,5.194615,-0.500000,0
GRID,1272,0,8.956312,5.041142,-0.500000,0
GRID,1273,0,9.001544,4.887668,-0.500000,0
GRID,1274,0,9.046777,4.734195,-0.500000,0
GRID,1275,0,9.092009,4.580722,-0.500000,0
GRID,1276,0,9.137242,4.427249,-0.500000,0
GRID,1277,0,9.182475,4.273776,-0.500000,0
GRID,1278,0,8.930173,6.367873,-0.500000,0
GRID,1279,0,9.528115,4.339073,-0.500000,0
GRID,1280,0,8.975406,6.214400,-0.500000,0
GRID,1281,0,9.020638,6.060927,-0.500000,0
GRID,1282,0,9.065871,5.907454,-0.500000,0
GRID,1283,0,9.111104,5.753981,-0.500000,0
GRID,1284,0,9.156336,5.600507,-0.500000,0
GRID,1285,0,9.201569,5.447034,-0.500000,0
GRID,1286,0,9.246802,5.293561,-0.500000,0
GRID,1287,0,9.292034,5.140088,-0.500000,0
GRID,1288,0,9.337267,4.986615,-0.500000,0
GRID,1289,0,9.382499,4.833142,-0.500000,0
GRID,1290,0,9.427732,4.679668,-0.500000,0
GRID,1291,0,9.472965,4.526195,-0.500000,0
GRID,1292,0,9.518197,4.372722,-0.500000,0
GRID,1293,0,9.265896,6.466820,-0.500000,0
GRID,1294,0,9.849121,4.487951,-0.500000,0
GRID,1295,0,9.311128,6.313346,-0.500000,0
GRID,1296,0,9.356361,6.159873,-0.500000,0
GRID,1297,0,9.401594,6.006400,-0.500000,0
GRID,1298,0,9.446826,5.852927,-0.500000,0
GRID,1299,0,9.492059,5.699454,-0.500000,0
GRID,1300,0,9.537291,5.545981,-0.500000,0
GRID,1301,0,9.582524,5.392507,-0.500000,0
GRID,1302,0,9.627757,5.239034,-0.500000,0
GRID,1303,0,9.672989,5.085561,-0.500000,0
GRID,1304,0,9.718222,4.932088,-0.500000,0
GRID,1305,0,9.763455,4.778615,-0.500000,0
GRID,1306,0,9.808687,4.625142,-0.500000,0
GRID,1307,0,9.601618,6.565766,-0.500000,0
GRID,1308,0,10.170127,4.636828,-0.500000,0
GRID,1309,0,9.646851,6.412293,-0.500000,0
GRID,1310,0,9.692084,6.258820,-0.500000,0
GRID,1311,0,9.737316,6.105346,-0.500000,0
GRID,1312,0,9.782549,5.951873,-0.500000,0
GRID,1313,0,9.827781,5.798400,-0.500000,0
GRID,1314,0,9.873014,5.644927,-0.500000,0
GRID,1315,0,9.918247,5.491454,-0.500000,0
GRID,1316,0,9.963479,5.337981,-0.500000,0
GRID,1317,0,10.008712,5.184507,-0.500000,0
GRID,1318,0,10.053944,5.031034,-0.500000,0
GRID,1319,0,10.099177,4.877561,-0.500000,0
GRID,1320,0,10.144410,4.724088,-0.500000,0
GRID,1321,0,9.937341,6.664712,-0.500000,0
GRID,1322,0,10.491134,4.785706,-0.500000,0
GRID,1323,0,9.982573,6.511239,-0.500000,0
GRID,1324,0,10.027806,6.357766,-0.500000,0
GRID,1325,0,10.073039,6.204293,-0.500000,0
GRID,1326,0,10.118271,6.050820,-0.500000,0
GRID,1327,0,10.163504,5.897346,-0.500000,0
GRID,1328,0,10.208737,5.743873,-0.500000,0
GRID,1329,0,10.253969,5.590400,-0.500000,0
GRID,1330,0,10.299202,5.436927,-0.500000,0
GRID,1331,0,10.344434,5.283454,-0.500000,0
GRID,1332,0,10.389667,5.129981,-0.500000,0
GRID,1333,0,10.434900,4.976508,-0.500000,0
GRID,1334,0,10.480132,4.823034,-0.500000,0
GRID,1335,0,10.273063,6.763659,-0.500000,0
GRID,1336,0,10.812140,4.934584,-0.500000,0
GRID,1337,0,10.318296,6.610185,-0.500000,0
GRID,1338,0,10.363529,6.456712,-0.500000,0
GRID,1339,0,10.408761,6.303239,-0.500000,0
GRID,1340,0,10.453994,6.149766,-0.500000,0
GRID,1341,0,10.499226,5.996293,-0.500000,0
GRID,1342,0,10.544459,5.842820,-0.500000,0
GRID,1343,0,10.589692,5.689346,-0.500000,0
GRID,1344,0,10.634924,5.535873,-0.500000,0
GRID,1345,0,10.680157,5.382400,-0.500000,0
GRID,1346,0,10.725390,5.228927,-0.500000,0
GRID,1347,0,10.770622,5.075454,-0.500000,0
GRID,1348,0,10.608786,6.862605,-0.500000,0
GRID,1349,0,11.133147,5.083461,-0.500000,0
GRID,1350,0,10.654019,6.709132,-0.500000,0
GRID,1351,0,10.699251,6.555659,-0.500000,0
GRID,1352,0,10.744484,6.402185,-0.500000,0
GRID,1353,0,10.789716,6.248712,-0.500000,0
GRID,1354,0,10.834949,6.095239,-0.500000,0
GRID,1355,0,10.880182,5.941766,-0.500000,0
GRID,1356,0,10.925414,5.788293,-0.500000,0
GRID,1357,0,10.970647,5.634820,-0.500000,0
GRID,1358,0,11.015879,5.481347,-0.500000,0
GRID,1359,0,11.061112,5.327873,-0.500000,0
GRID,1360,0,11.106345,5.174400,-0.500000,0
GRID,1361,0,10.944508,6.961551,-0.500000,0
GRID,1362,0,11.454153,5.232339,-0.500000,0
GRID,1363,0,10.989741,6.808078,-0.500000,0
GRID,1364,0,11.034974,6.654605,-0.500000,0
GRID,1365,0,11.080206,6.501132,-0.500000,0
GRID,1366,0,11.125439,6.347659,-0.500000,0
GRID,1367,0,11.170672,6.194185,-0.500000,0
GRID,1368,0,11.215904,6.040712,-0.500000,0
GRID,1369,0,11.261137,5.887239,-0.500000,0
GRID,1370,0,11.306369,5.733766,-0.500000,0
GRID,1371,0,11.351602,5.580293,-0.500000,0
GRID,1372,0,11.396835,5.426820,-0.500000,0
GRID,1373,0,11.442067,5.273347,-0.500000,0
GRID,1374,0,11.280231,7.060498,-0.500000,0
GRID,1375,0,11.775160,5.381217,-0.500000,0
GRID,1376,0,11.325464,6.907024,-0.500000,0
GRID,1377,0,11.370696,6.753551,-0.500000,0
GRID,1378,0,11.415929,6.600078,-0.500000,0
GRID,1379,0,11.461161,6.446605,-0.500000,0
GRID,1380,0,11.506394,6.293132,-0.500000,0
GRID,1381,0,11.551627,6.139659,-0.500000,0
GRID,1382,0,11.596859,5.986186,-0.500000,0
GRID,1383,0,11.642092,5.832712,-0.500000,0
GRID,1384,0,11.687325,5.679239,-0.500000,0
GRID,1385,0,11.732557,5.525766,-0.500000,0
GRID,1386,0,11.615954,7.159444,-0.500000,0
GRID,1387,0,12.096166,5.530094,-0.500000,0
GRID,1388,0,11.661186,7.005971,-0.500000,0
GRID,1389,0,11.706419,6.852498,-0.500000,0
GRID,1390,0,11.751651,6.699025,-0.500000,0
GRID,1391,0,11.796884,6.545551,-0.500000,0
GRID,1392,0,11.842117,6.392078,-0.500000,0
GRID,1393,0,11.887349,6.238605,-0.500000,0
GRID,1394,0,11.932582,6.085132,-0.500000,0
GRID,1395,0,11.977814,5.931659,-0.500000,0
GRID,1396,0,12.023047,5.778186,-0.500000,0
GRID,1397,0,12.068280,5.624712,-0.500000,0
GRID,1398,0,11.951676,7.258390,-0.500000,0
GRID,1399,0,12.417173,5.678972,-0.500000,0
GRID,1400,0,11.996909,7.104917,-0.500000,0
GRID,1401,0,12.042141,6.951444,-0.500000,0
GRID,1402,0,12.087374,6.797971,-0.500000,0
GRID,1403,0,12.132607,6.644498,-0.500000,0
GRID,1404,0,12.177839,6.491025,-0.500000,0
GRID,1405,0,12.223072,6.337551,-0.500000,0
GRID,1406,0,12.268304,6.184078,-0.500000,0
GRID,1407,0,12.313537,6.030605,-0.500000,0
GRID,1408,0,12.358770,5.877132,-0.500000,0
GRID,1409,0,12.404002,5.723659,-0.500000,0
GRID,1410,0,12.287399,7.357337,-0.500000,0
GRID,1411,0,12.738179,5.827849,-0.500000,0
GRID,1412,0,12.332631,7.203864,-0.500000,0
GRID,1413,0,12.377864,7.050390,-0.500000,0
GRID,1414,0,12.423096,6.896917,-0.500000,0
GRID,1415,0,12.468329,6.743444,-0.500000,0
GRID,1416,0,12.513562,6.589971,-0.500000,0
GRID,1417,0,12.558794,6.436498,-0.500000,0
GRID,1418,0,12.604027,6.283025,-0.500000,0
GRID,1419,0,12.649260,6.129551,-0.500000,0
GRID,1420,0,12.694492,5.976078,-0.500000,0
GRID,1421,0,12.623121,7.456283,-0.500000,0
GRID,1422,0,13.059186,5.976727,-0.500000,0
GRID,1423,0,12.668354,7.302810,-0.500000,0
GRID,1424,0,12.713586,7.149337,-0.500000,0
GRID,1425,0,12.758819,6.995864,-0.500000,0
GRID,1426,0,12.804052,6.842390,-0.500000,0
GRID,1427,0,12.849284,6.688917,-0.500000,0
GRID,1428,0,12.894517,6.535444,-0.500000,0
GRID,1429,0,12.939749,6.381971,-0.500000,0
GRID,1430,0,12.984982,6.228498,-0.500000,0
GRID,1431,0,13.030215,6.075025,-0.500000,0
GRID,1432,0,12.958844,7.555229,-0.500000,0
GRID,1433,0,13.380192,6.125605,-0.500000,0
GRID,1434,0,13.004076,7.401756,-0.500000,0
GRID,1435,0,13.049309,7.248283,-0.500000,0
GRID,1436,0,13.094542,7.094810,-0.500000,0
GRID,1437,0,13.139774,6.941337,-0.500000,0
GRID,1438,0,13.185007,6.787864,-0.500000,0
GRID,1439,0,13.230239,6.634390,-0.500000,0
GRID,1440,0,13.275472,6.480917,-0.500000,0
GRID,1441,0,13.320705,6.327444,-0.500000,0
GRID,1442,0,13.365937,6.173971,-0.500000,0
GRID,1443,0,13.294566,7.654176,-0.500000,0
GRID,1444,0,13.701198,6.274482,-0.500000,0
GRID,1445,0,13.339799,7.500703,-0.500000,0
GRID,1446,0,13.385031,7.347229,-0.500000,0
GRID,1447,0,13.430264,7.193756,-0.500000,0
GRID,1448,0,13.475497,7.040283,-0.500000,0
GRID,1449,0,13.520729,6.886810,-0.500000,0
GRID,1450,0,13.565962,6.733337,-0.500000,0
GRID,1451,0,13.611195,6.579864,-0.500000,0
GRID,1452,0,13.656427,6.426390,-0.500000,0
GRID,1453,0,13.630289,7.753122,-0.500000,0
GRID,1454,0,14.022205,6.423360,-0.500000,0
GRID,1455,0,13.675521,7.599649,-0.500000,0
GRID,1456,0,13.720754,7.446176,-0.500000,0
GRID,1457,0,13.765987,7.292703,-0.500000,0
GRID,1458,0,13.811219,7.139229,-0.500000,0
GRID,1459,0,13.856452,6.985756,-0.500000,0
GRID,1460,0,13.901684,6.832283,-0.500000,0
GRID,1461,0,13.946917,6.678810,-0.500000,0
GRID,1462,0,13.992150,6.525337,-0.500000,0
GRID,1463,0,13.966011,7.852068,-0.500000,0
GRID,1464,0,14.343211,6.572238,-0.500000,0
GRID,1465,0,14.011244,7.698595,-0.500000,0
GRID,1466,0,14.056477,7.545122,-0.500000,0
GRID,1467,0,14.101709,7.391649,-0.500000,0
GRID,1468,0,14.146942,7.238176,-0.500000,0
GRID,1469,0,14.192174,7.084703,-0.500000,0
GRID,1470,0,14.237407,6.931229,-0.500000,0
GRID,1471,0,14.282640,6.777756,-0.500000,0
GRID,1472,0,14.327872,6.624283,-0.500000,0
GRID,1473,0,14.301734,7.951015,-0.500000,0
GRID,1474,0,14.664218,6.721115,-0.500000,0
GRID,1475,0,14.346966,7.797542,-0.500000,0
GRID,1476,0,14.392199,7.644068,-0.500000,0
GRID,1477,0,14.437432,7.490595,-0.500000,0
GRID,1478,0,14.482664,7.337122,-0.500000,0
GRID,1479,0,14.527897,7.183649,-0.500000,0
GRID,1480,0,14.573130,7.030176,-0.500000,0
GRID,1481,0,14.618362,6.876703,-0.500000,0
GRID,1482,0,14.663595,6.723229,-0.500000,0
GRID,1483,0,14.637456,8.049961,-0.500000,0
GRID,1484,0,14.985224,6.869993,-0.500000,0
GRID,1485,0,14.682689,7.896488,-0.500000,0
GRID,1486,0,14.727922,7.743015,-0.500000,0
GRID,1487,0,14.773154,7.589542,-0.500000,0
GRID,1488,0,14.818387,7.436068,-0.500000,0
GRID,1489,0,14.863619,7.282595,-0.500000,0
GRID,1490,0,14.908852,7.129122,-0.500000,0
GRID,1491,0,14.954085,6.975649,-0.500000,0
GRID,1492,0,14.973179,8.148907,-0.500000,0
GRID,1493,0,15.306231,7.018871,-0.500000,0
GRID,1494,0,15.018412,7.995434,-0.500000,0
GRID,1495,0,15.063644,7.841961,-0.500000,0
GRID,1496,0,15.108877,7.688488,-0.500000,0
GRID,1497,0,15.154109,7.535015,-0.500000,0
GRID,1498,0,15.199342,7.381542,-0.500000,0
GRID,1499,0,15.244575,7.228068,-0.500000,0
GRID,1500,0,15.289807,7.074595,-0.500000,0
GRID,1501,0,15.308901,8.247854,-0.500000,0
GRID,1502,0,15.627237,7.167748,-0.500000,0
GRID,1503,0,15.354134,8.094381,-0.500000,0
GRID,1504,0,15.399367,7.940907,-0.500000,0
GRID,1505,0,15.444599,7.787434,-0.500000,0
GRID,1506,0,15.489832,7.633961,-0.500000,0
GRID,1507,0,15.535064,7.480488,-0.500000,0
GRID,1508,0,15.580297,7.327015,-0.500000,0
GRID,1509,0,15.625530,7.173542,-0.500000,0
GRID,1510,0,15.644624,8.346800,-0.500000,0
GRID,1511,0,15.948244,7.316626,-0.500000,0
GRID,1512,0,15.689857,8.193327,-0.500000,0
GRID,1513,0,15.735089,8.039854,-0.500000,0
GRID,1514,0,15.780322,7.886381,-0.500000,0
GRID,1515,0,15.825554,7.732907,-0.500000,0
GRID,1516,0,15.870787,7.579434,-0.500000,0
GRID,1517,0,15.916020,7.425961,-0.500000,0
GRID,1518,0,15.980346,8.445746,-0.500000,0
GRID,1519,0,16.269250,7.465504,-0.500000,0
GRID,1520,0,16.025579,8.292273,-0.500000,0
GRID,1521,0,16.070812,8.138800,-0.500000,0
GRID,1522,0,16.116044,7.985327,-0.500000,0
GRID,1523,0,16.161277,7.831854,-0.500000,0
GRID,1524,0,16.206510,7.678381,-0.500000,0
GRID,1525,0,16.251742,7.524908,-0.500000,0
GRID,1526,0,16.316069,8.544693,-0.500000,0
GRID,1527,0,16.590257,7.614381,-0.500000,0
GRID,1528,0,16.361302,8.391220,-0.500000,0
GRID,1529,0,16.406534,8.237746,-0.500000,0
GRID,1530,0,16.451767,8.084273,-0.500000,0
GRID,1531,0,16.496999,7.930800,-0.500000,0
GRID,1532,0,16.542232,7.777327,-0.500000,0
GRID,1533,0,16.587465,7.623854,-0.500000,0
GRID,1534,0,16.651792,8.643639,-0.500000,0
GRID,1535,0,16.911263,7.763259,-0.500000,0
GRID,1536,0,16.697024,8.490166,-0.500000,0
GRID,1537,0,16.742257,8.336693,-0.500000,0
GRID,1538,0,16.787489,8.183220,-0.500000,0
GRID,1539,0,16.832722,8.029747,-0.500000,0
GRID,1540,0,16.877955,7.876273,-0.500000,0
GRID,1541,0,16.605923,7.796098,-0.500000,0
GRID,1542,0,15.619250,7.338495,-0.500000,0
GRID,1543,0,14.632577,6.880892,-0.500000,0
GRID,1544,0,13.645904,6.423289,-0.500000,0
GRID,1545,0,12.659230,5.965686,-0.500000,0
GRID,1546,0,11.672557,5.508083,-0.500000,0
GRID,1547,0,10.685884,5.050479,-0.500000,0
GRID,1548,0,9.699211,4.592876,-0.500000,0
GRID,1549,0,8.712538,4.135273,-0.500000,0
GRID,1550,0,7.725865,3.677670,-0.500000,0
GRID,1551,0,6.739192,3.220067,-0.500000,0
GRID,1552,0,5.752519,2.762464,-0.500000,0
GRID,1553,0,4.765846,2.304860,-0.500000,0
GRID,1554,0,3.779173,1.847257,-0.500000,0
GRID,1555,0,2.792500,1.389654,-0.500000,0
GRID,1556,0,1.813911,0.641955,-0.500000,0
GRID,1557,0,1.782954,0.746991,-0.500000,0
GRID,1558,0,1.925233,2.968896,-0.500000,0
GRID,1559,0,1.925233,1.634461,-0.500000,0
GRID,1560,0,1.880000,0.792000,-0.500000,0
GRID,1561,0,0.000000,4.290000,-0.500000,0
GRID,1562,0,0.000000,0.792000,-0.500000,0
GRID,1563,0,0.000000,4.123196,-0.500000,0
GRID,1564,0,0.000000,3.956391,-0.500000,0
GRID,1565,0,0.000000,3.789587,-0.500000,0
GRID,1566,0,0.000000,3.622782,-0.500000,0
GRID,1567,0,0.000000,3.455978,-0.500000,0
GRID,1568,0,0.000000,3.289174,-0.500000,0
GRID,1569,0,0.000000,3.122369,-0.500000,0
GRID,1570,0,0.000000,2.955565,-0.500000,0
GRID,1571,0,0.000000,2.788760,-0.500000,0
GRID,1572,0,0.000000,2.621956,-0.500000,0
GRID,1573,0,0.000000,2.455151,-0.500000,0
GRID,1574,0,0.000000,2.288347,-0.500000,0
GRID,1575,0,0.000000,2.121543,-0.500000,0
GRID,1576,0,0.000000,1.954738,-0.500000,0
GRID,1577,0,0.000000,1.787934,-0.500000,0
GRID,1578,0,0.000000,1.621129,-0.500000,0
GRID,1579,0,0.000000,1.454325,-0.500000,0
GRID,1580,0,0.000000,1.287521,-0.500000,0
GRID,1581,0,0.000000,1.120716,-0.500000,0
GRID,1582,0,0.000000,0.953912,-0.500000,0
GRID,1583,0,0.590000,4.290000,-0.500000,0
GRID,1584,0,0.590000,0.792000,-0.500000,0
GRID,1585,0,0.590000,4.123196,-0.500000,0
GRID,1586,0,0.590000,3.956391,-0.500000,0
GRID,1587,0,0.590000,3.789587,-0.500000,0
GRID,1588,0,0.590000,3.622782,-0.500000,0
GRID,1589,0,0.590000,3.455978,-0.500000,0
GRID,1590,0,0.590000,3.289174,-0.500000,0
GRID,1591,0,0.590000,3.122369,-0.500000,0
GRID,1592,0,0.590000,2.955565,-0.500000,0
GRID,1593,0,0.590000,2.788760,-0.500000,0
GRID,1594,0,0.590000,2.621956,-0.500000,0
GRID,1595,0,0.590000,2.455151,-0.500000,0
GRID,1596,0,0.590000,2.288347,-0.500000,0
GRID,1597,0,0.590000,2.121543,-0.500000,0
GRID,1598,0,0.590000,1.954738,-0.500000,0
GRID,1599,0,0.590000,1.787934,-0.500000,0
GRID,1600,0,0.590000,1.621129,-0.500000,0
GRID,1601,0,0.590000,1.454325,-0.500000,0
GRID,1602,0,0.590000,1.287521,-0.500000,0
GRID,1603,0,0.590000,1.120716,-0.500000,0
GRID,1604,0,0.590000,0.953912,-0.500000,0
GRID,1605,0,1.180000,4.290000,-0.500000,0
GRID,1606,0,1.180000,0.792000,-0.500000,0
GRID,1607,0,1.180000,4.123196,-0.500000,0
GRID,1608,0,1.180000,3.956391,-0.500000,0
GRID,1609,0,1.180000,3.789587,-0.500000,0
GRID,1610,0,1.180000,3.622782,-0.500000,0
GRID,1611,0,1.180000,3.455978,-0.500000,0
GRID,1612,0,1.180000,3.289174,-0.500000,0
GRID,1613,0,1.180000,3.122369,-0.500000,0
GRID,1614,0,1.180000,2.955565,-0.500000,0
GRID,1615,0,1.180000,2.788760,-0.500000,0
GRID,1616,0,1.180000,2.621956,-0.500000,0
GRID,1617,0,1.180000,2.455151,-0.500000,0
GRID,1618,0,1.180000,2.288347,-0.500000,0
GRID,1619,0,1.180000,2.121543,-0.500000,0
GRID,1620,0,1.180000,1.954738,-0.500000,0
GRID,1621,0,1.180000,1.787934,-0.500000,0
GRID,1622,0,1.180000,1.621129,-0.500000,0
GRID,1623,0,1.180000,1.454325,-0.500000,0
GRID,1624,0,1.180000,1.287521,-0.500000,0
GRID,1625,0,1.180000,1.120716,-0.500000,0
GRID,1626,0,1.180000,0.953912,-0.500000,0
GRID,1627,0,1.530000,4.290000,-0.500000,0
GRID,1628,0,1.530000,0.792000,-0.500000,0
GRID,1629,0,1.530000,4.123196,-0.500000,0
GRID,1630,0,1.530000,3.956391,-0.500000,0
GRID,1631,0,1.530000,3.789587,-0.500000,0
GRID,1632,0,1.530000,3.622782,-0.500000,0
GRID,1633,0,1.530000,3.455978,-0.500000,0
GRID,1634,0,1.530000,3.289174,-0.500000,0
GRID,1635,0,1.530000,3.122369,-0.500000,0
GRID,1636,0,1.530000,2.955565,-0.500000,0
GRID,1637,0,1.530000,2.788760,-0.500000,0
GRID,1638,0,1.530000,2.621956,-0.500000,0
GRID,1639,0,1.530000,2.455151,-0.500000,0
GRID,1640,0,1.530000,2.288347,-0.500000,0
GRID,1641,0,1.530000,2.121543,-0.500000,0
GRID,1642,0,1.530000,1.954738,-0.500000,0
GRID,1643,0,1.530000,1.787934,-0.500000,0
GRID,1644,0,1.530000,1.621129,-0.500000,0
GRID,1645,0,1.530000,1.454325,-0.500000,0
GRID,1646,0,1.530000,1.287521,-0.500000,0
GRID,1647,0,1.530000,1.120716,-0.500000,0
GRID,1648,0,1.530000,0.953912,-0.500000,0
GRID,1649,0,1.880000,4.290000,-0.500000,0
GRID,1650,0,1.880000,0.792000,-0.500000,0
GRID,1651,0,1.880000,4.123196,-0.500000,0
GRID,1652,0,1.880000,3.956391,-0.500000,0
GRID,1653,0,1.880000,3.789587,-0.500000,0
GRID,1654,0,1.880000,3.622782,-0.500000,0
GRID,1655,0,1.880000,3.455978,-0.500000,0
GRID,1656,0,1.880000,3.289174,-0.500000,0
GRID,1657,0,1.880000,3.122369,-0.500000,0
GRID,1658,0,1.880000,2.955565,-0.500000,0
GRID,1659,0,1.880000,2.788760,-0.500000,0
GRID,1660,0,1.880000,2.621956,-0.500000,0
GRID,1661,0,1.880000,2.455151,-0.500000,0
GRID,1662,0,1.880000,2.288347,-0.500000,0
GRID,1663,0,1.880000,2.121543,-0.500000,0
GRID,1664,0,1.880000,1.954738,-0.500000,0
GRID,1665,0,1.880000,1.787934,-0.500000,0
GRID,1666,0,1.880000,1.621129,-0.500000,0
GRID,1667,0,1.880000,1.454325,-0.500000,0
GRID,1668,0,1.880000,1.287521,-0.500000,0
GRID,1669,0,1.880000,1.120716,-0.500000,0
GRID,1670,0,1.880000,0.953912,-0.500000,0
ENDDATA
